<svg version="1.1" xmlns="http://www.w3.org/2000/svg" width="30" height="30" viewBox="0 0 512 512"><path d="M0 0 C0.76431839 -0.00988449 1.52863678 -0.01976898 2.31611633 -0.029953 C59.26009482 -0.61356731 108.59255022 17.86723722 149.59765625 57.80078125 C180.84622343 89.97181536 202.71408183 136.31501716 202.98828125 181.62890625 C202.99529556 182.40721298 203.00230988 183.18551971 203.00953674 183.9874115 C203.02695639 186.48776086 203.03338969 188.98787343 203.03515625 191.48828125 C203.03583099 192.34209381 203.03650574 193.19590637 203.03720093 194.07559204 C203.02134122 206.69147409 202.63551933 218.89690434 199.78515625 231.23828125 C199.6135498 232.01010742 199.44194336 232.78193359 199.26513672 233.57714844 C187.82673068 283.88977981 157.18978853 328.14992684 113.43164062 355.72119141 C101.06220731 363.30626675 88.48419879 369.46182017 74.78515625 374.23828125 C73.58971191 374.65932129 73.58971191 374.65932129 72.37011719 375.08886719 C24.61882939 391.5488117 -28.80237227 387.10773069 -74.1340332 365.47680664 C-119.97022275 343.02722016 -154.85170264 303.23849329 -171.6171875 255.08984375 C-174.25093207 247.23747066 -176.41755484 239.32186238 -178.21484375 231.23828125 C-178.38000488 230.52317383 -178.54516602 229.80806641 -178.71533203 229.07128906 C-189.11744855 181.97670155 -177.89880139 129.57363703 -152.48388672 89.21386719 C-124.25151109 45.26304311 -80.77433173 15.14371835 -29.86669922 3.7109375 C-19.97387073 1.63230542 -10.1136584 0.10801071 0 0 Z M-39.53515625 65.90625 C-52.43022651 82.89538249 -56.40403169 100.76422253 -53.78125 121.69921875 C-50.14088173 138.56701209 -39.54610078 153.75760352 -25.21484375 163.23828125 C-9.0109949 172.70163363 8.59430009 176.18262152 27.16015625 172.17578125 C44.2538121 166.97545778 58.39575875 156.54021024 67.78515625 141.23828125 C75.92393845 125.29326924 79.19975347 106.57966563 73.87890625 89.08984375 C66.50022436 69.85256596 54.56279988 56.29162763 35.7890625 47.4921875 C9.5856037 36.55420275 -21.0285834 44.6268068 -39.53515625 65.90625 Z M-43.21484375 197.23828125 C-44.71337891 197.9653125 -44.71337891 197.9653125 -46.2421875 198.70703125 C-73.87070642 212.97714145 -95.52625725 239.08783197 -104.98144531 268.63378906 C-109.96454956 283.51169468 -109.96454956 283.51169468 -109.08984375 298.61328125 C-106.70439521 301.9529092 -104.51165964 304.79999992 -100.2795049 305.60758507 C-97.86945063 305.75800728 -95.4888287 305.77606471 -93.07411194 305.75294495 C-91.68972959 305.76336324 -91.68972959 305.76336324 -90.27737993 305.773992 C-87.18345375 305.79229475 -84.09029151 305.78198841 -80.99633789 305.77172852 C-78.77875697 305.77878532 -76.56118087 305.78752932 -74.34361267 305.7978363 C-68.31882593 305.82036673 -62.29430144 305.81738192 -56.26948857 305.80851483 C-51.24196599 305.80341016 -46.21449291 305.81069329 -41.18697542 305.81798691 C-28.6495498 305.83597046 -16.11225065 305.82956339 -3.57483863 305.8118171 C7.31052453 305.79712172 18.19561162 305.81174632 29.08093923 305.84058727 C40.26148782 305.86998949 51.44193669 305.88044297 62.62252909 305.87140507 C68.89820776 305.86647122 75.17367184 305.86871647 81.44932365 305.88919258 C87.35014653 305.90752345 93.25045571 305.90162217 99.15125084 305.87699318 C101.31762179 305.87197717 103.4840317 305.87549542 105.65037155 305.88814163 C108.60665461 305.90403471 111.56123838 305.88915597 114.5174408 305.86647034 C115.37590746 305.87830607 116.23437413 305.89014179 117.11885494 305.90233618 C121.29494614 305.8371749 123.96590611 305.51636506 127.2762537 302.84843349 C129.80677718 300.21578778 130.98656738 298.77111147 131.78515625 295.23828125 C131.16275752 265.50958901 114.27016356 237.11579317 93.50073242 216.92358398 C70.90107233 195.7545204 39.58258881 183.20733393 8.48046875 184.05078125 C-10.05029359 185.33987776 -26.48370708 189.09062599 -43.21484375 197.23828125 Z " fill="#000000" transform="translate(245.21484375,63.76171875)" /><path d="M0 0 C0.87011719 0.75925781 1.74023438 1.51851562 2.63671875 2.30078125 C12.63969985 11.14172059 21.76756071 20.48714634 30 31 C30.80179687 31.99644531 31.60359375 32.99289063 32.4296875 34.01953125 C38.99735991 42.25932535 44.64761663 50.93096351 50 60 C50.4448877 60.74604492 50.88977539 61.49208984 51.34814453 62.26074219 C67.47962624 89.5495933 77.3707853 119.70602576 82 151 C82.11714355 151.7542627 82.23428711 152.50852539 82.35498047 153.28564453 C91.71250207 215.56252304 73.98125465 281.62424668 36.9453125 332.12890625 C32.55180584 337.97676511 27.84529453 343.52430406 23 349 C22.24074219 349.87011719 21.48148437 350.74023438 20.69921875 351.63671875 C11.85664553 361.64154848 2.50765269 370.75842076 -8 379 C-8.9384375 379.76699219 -9.876875 380.53398437 -10.84375 381.32421875 C-25.25022575 392.85311236 -41.27514422 402.25949924 -58 410 C-58.61020996 410.29036133 -59.22041992 410.58072266 -59.84912109 410.87988281 C-118.82110938 438.86395115 -187.45314321 439.83722505 -248.55078125 418.37890625 C-277.24204809 407.96992256 -303.17380696 392.19827791 -326 372 C-326.87011719 371.24074219 -327.74023438 370.48148437 -328.63671875 369.69921875 C-338.63969985 360.85827941 -347.76756071 351.51285366 -356 341 C-356.80179687 340.00355469 -357.60359375 339.00710938 -358.4296875 337.98046875 C-364.99681718 329.7403978 -370.6290952 321.05710783 -376 312 C-376.4125 311.31341309 -376.825 310.62682617 -377.25 309.91943359 C-393.62472424 282.47258136 -402.9497947 252.4177028 -408 221 C-408.13277344 220.18176758 -408.26554687 219.36353516 -408.40234375 218.52050781 C-417.94988668 156.38102192 -399.75241855 90.3248748 -362.98046875 39.94140625 C-358.58859391 34.05838329 -353.86306459 28.49577799 -349 23 C-348.24074219 22.12988281 -347.48148438 21.25976562 -346.69921875 20.36328125 C-337.85827941 10.36030015 -328.51285366 1.23243929 -318 -7 C-317.00355469 -7.80179688 -316.00710938 -8.60359375 -314.98046875 -9.4296875 C-306.7403978 -15.99681718 -298.05710783 -21.6290952 -289 -27 C-288.31341309 -27.4125 -287.62682617 -27.825 -286.91943359 -28.25 C-259.47258136 -44.62472424 -229.4177028 -53.9497947 -198 -59 C-197.18176758 -59.13277344 -196.36353516 -59.26554687 -195.52050781 -59.40234375 C-125.83716661 -70.1089771 -52.34514044 -46.31879228 0 0 Z M-293 23 C-293.5667041 23.46519043 -294.1334082 23.93038086 -294.71728516 24.40966797 C-307.44175942 34.90990273 -318.81252874 46.01420882 -328.69287109 59.25292969 C-329.94258103 60.92325549 -331.21398041 62.57497164 -332.48828125 64.2265625 C-353.08854658 91.43662634 -364.80815648 124.51912994 -370 158 C-370.1038501 158.65379639 -370.2077002 159.30759277 -370.31469727 159.98120117 C-377.22301605 211.19976269 -363.16251379 266.71063171 -332.27709961 308.16748047 C-330.23885689 310.82313661 -328.13366648 313.42103292 -326 316 C-325.52949219 316.57202148 -325.05898438 317.14404297 -324.57421875 317.73339844 C-314.72162274 329.64620087 -304.26674441 340.51822512 -292 350 C-291.46987305 350.41717285 -290.93974609 350.8343457 -290.39355469 351.26416016 C-257.89438795 376.71838274 -215.1760628 393.94829531 -173.546875 394.203125 C-172.77276276 394.21013931 -171.99865051 394.21715363 -171.20108032 394.22438049 C-168.71732688 394.24177625 -166.23381212 394.24823265 -163.75 394.25 C-162.89996399 394.25067474 -162.04992798 394.25134949 -161.1741333 394.25204468 C-148.22981114 394.23572279 -135.69296 393.75233425 -123 391 C-122.18547363 390.82839355 -121.37094727 390.65678711 -120.53173828 390.47998047 C-88.46167475 383.5480892 -58.34486788 369.96866434 -33 349 C-32.14196777 348.29423828 -32.14196777 348.29423828 -31.26660156 347.57421875 C-19.35379913 337.72162274 -8.48177488 327.26674441 1 315 C1.41717285 314.46987305 1.8343457 313.93974609 2.26416016 313.39355469 C36.40107026 269.80860018 50.19789188 214.16999238 44.31640625 159.4609375 C39.33659552 121.91387641 24.17949977 85.2258113 0 56 C-0.70576172 55.14196777 -0.70576172 55.14196777 -1.42578125 54.26660156 C-11.27837726 42.35379913 -21.73325559 31.48177488 -34 22 C-34.53012695 21.58282715 -35.06025391 21.1656543 -35.60644531 20.73583984 C-106.01937693 -34.4134644 -208.57565504 -36.77193269 -293 23 Z " fill="#000000" transform="translate(419,70)" /></svg>