<svg version="1.1" xmlns="http://www.w3.org/2000/svg" width="30" height="30" viewBox="0 0 512 512"><path d="M0 0 C4.7991512 1.72950543 8.30609096 0.63181499 13.0625 -0.8125 C15.10168788 -1.34295541 17.14350866 -1.8633658 19.1875 -2.375 C20.13882812 -2.62378906 21.09015625 -2.87257813 22.0703125 -3.12890625 C47.87927688 -9.02521012 75.41080183 -3.64078635 97.8125 10.0546875 C102.90911832 13.39934327 107.53602946 17.11086504 112.0625 21.1875 C112.83078125 21.87328125 113.5990625 22.5590625 114.390625 23.265625 C132.90903422 40.7480393 144.25895943 66.19152585 145.14833069 91.64382935 C145.1771008 94.25406355 145.17522438 96.86231209 145.16015625 99.47265625 C145.15803383 100.88519936 145.15803383 100.88519936 145.15586853 102.32627869 C145.15032122 105.30088632 145.13777887 108.27541555 145.125 111.25 C145.11997818 113.28059786 145.11541647 115.31119692 145.11132812 117.34179688 C145.10036912 122.29039428 145.08314152 127.2389339 145.0625 132.1875 C145.8679425 132.17861755 146.67338501 132.16973511 147.50323486 132.1605835 C155.09548545 132.08041995 162.68753072 132.01952702 170.28009415 131.98025131 C174.18349518 131.95938031 178.0865464 131.93107243 181.98974609 131.88574219 C185.7569192 131.84226573 189.52375595 131.81835923 193.29116058 131.80799103 C194.72810919 131.80060277 196.16503947 131.78617494 197.60184479 131.76457977 C199.61491425 131.73552797 201.62832253 131.73386595 203.64160156 131.73339844 C204.78743713 131.72451599 205.93327271 131.71563354 207.11383057 131.70648193 C210.0625 132.1875 210.0625 132.1875 212.33880615 133.52838135 C217.15570073 140.95933798 216.77831219 152.54807778 217.74563599 161.16090393 C217.9037935 162.54511431 218.06227234 163.929288 218.22104156 165.31342834 C218.65310698 169.08842353 219.08059018 172.86392516 219.50726485 176.63953292 C219.9694713 180.72235311 220.43595271 184.80468523 220.90185547 188.88708496 C221.81252326 196.87296179 222.71914383 204.85929302 223.6242155 212.84580583 C224.3600166 219.33825097 225.09713137 225.83054567 225.83517075 232.32273674 C225.94036349 233.24810514 226.04555624 234.17347353 226.15393665 235.1268834 C226.36765875 237.00696431 226.58138169 238.88704512 226.79510544 240.76712584 C228.79700931 258.3791926 230.79407677 275.99180529 232.78967701 293.60458725 C234.61453371 309.7090584 236.4455144 325.81282638 238.27937652 341.91627432 C240.16404366 358.46634968 242.04455626 375.01689228 243.92058837 391.56794876 C244.97324109 400.85418526 246.02753405 410.14022842 247.08618546 419.42578316 C247.98708094 427.32804226 248.88404909 435.23073512 249.77597846 443.13401145 C250.23088373 447.16390937 250.68756901 451.19358389 251.14915085 455.22272301 C251.57210455 458.91509966 251.98983021 462.60802997 252.40349816 466.30145811 C252.62435131 468.26138809 252.85068282 470.22069838 253.07724583 472.17997652 C253.44771272 475.51373673 253.77518492 478.84562562 254.0625 482.1875 C254.14921329 483.14465845 254.23592659 484.1018169 254.32526755 485.08798015 C254.39410002 486.4009286 254.39410002 486.4009286 254.46432304 487.74040127 C254.50943484 488.48557615 254.55454664 489.23075103 254.60102546 489.99850696 C253.71949177 493.58175649 251.96856482 494.99158249 249.0625 497.1875 C246.1062891 497.67896252 243.72874281 497.86129546 240.77748108 497.8167057 C239.52505444 497.82760651 239.52505444 497.82760651 238.24732625 497.83872753 C235.4366468 497.85704185 232.62732093 497.83959255 229.81665039 497.82241821 C227.78648968 497.82817686 225.75633417 497.83611624 223.72618961 497.84605443 C218.137424 497.86698614 212.54908361 497.85658373 206.96031618 497.84112334 C200.93704585 497.82983966 194.91385013 497.84725772 188.89059448 497.86102295 C177.76975087 497.88200383 166.64902466 497.88013989 155.52818021 497.86646561 C145.2551919 497.85389563 134.98225346 497.85060066 124.70925903 497.85657883 C124.02824574 497.85696075 123.34723245 497.85734268 122.64558239 497.85773618 C119.88123706 497.85929283 117.11689176 497.86088483 114.35254649 497.862535 C88.41248951 497.87783544 62.47251921 497.86395409 36.53247561 497.83705051 C13.4783097 497.81332185 -9.57571812 497.81544496 -32.62988281 497.83935547 C-58.52200852 497.86611949 -84.41405764 497.87675041 -110.30619526 497.86129415 C-113.06554983 497.85969053 -115.82490443 497.85812633 -118.58425903 497.85657883 C-119.60341966 497.85598575 -119.60341966 497.85598575 -120.6431694 497.85538069 C-130.91056125 497.84968953 -141.17789779 497.85635173 -151.44528198 497.86897659 C-163.11793545 497.88325768 -174.79045748 497.87924891 -186.46309638 497.85257287 C-192.42217885 497.83940453 -198.3809806 497.83433383 -204.34006119 497.85081863 C-209.79043276 497.86566848 -215.24026223 497.85761192 -220.6905843 497.83093087 C-222.6669521 497.82532482 -224.64336527 497.82823358 -226.61970413 497.84030981 C-229.29795571 497.85542534 -231.97432905 497.84001566 -234.65248108 497.8167057 C-235.42725473 497.82841153 -236.20202838 497.84011737 -237.00028002 497.85217792 C-240.91355824 497.78368651 -242.77416457 497.31092159 -245.93019974 494.92611831 C-248.00443229 492.09618232 -248.54580698 491.15118623 -248.33932304 487.74040127 C-248.29343473 486.8651023 -248.24754642 485.98980333 -248.20026755 485.08798015 C-248.11355426 484.1308217 -248.02684097 483.17366325 -247.9375 482.1875 C-247.84956499 481.16469346 -247.76162999 480.14188692 -247.67103028 479.08808625 C-247.32495588 475.50015562 -246.92239062 471.92179373 -246.5083313 468.34107971 C-246.35254023 466.95853399 -246.19723857 465.57593305 -246.04238021 464.19328254 C-245.61800116 460.4170045 -245.18669252 456.64154619 -244.75418448 452.86619174 C-244.28793156 448.78545819 -243.82815982 444.70399369 -243.36755371 440.62261963 C-242.46517912 432.63603886 -241.5568185 424.65014989 -240.6463684 416.66448612 C-239.58550929 407.35780466 -238.53037118 398.05047726 -237.47539996 388.74312686 C-235.59228432 372.13152174 -233.70363275 355.52055063 -231.81201172 338.90991211 C-229.97805389 322.80560648 -228.14853201 306.70080472 -226.32373047 290.59545898 C-224.33506124 273.04390907 -222.34407034 255.4926256 -220.34892929 237.94181007 C-220.13600935 236.06878568 -219.92308983 234.19576123 -219.71017075 232.32273674 C-219.5530386 230.9405179 -219.5530386 230.9405179 -219.39273206 229.53037544 C-218.65604984 223.04889464 -217.92094661 216.56723588 -217.18640518 210.08551216 C-216.29059101 202.18133621 -215.39203257 194.2774777 -214.49005069 186.37400312 C-214.03024674 182.34452232 -213.57159729 178.31491949 -213.11617661 174.28494072 C-212.69861697 170.59033224 -212.27758761 166.89613571 -211.85387419 163.20222806 C-211.63020884 161.24468653 -211.41014427 159.2867346 -211.19024098 157.32876688 C-208.93288088 137.74904833 -208.93288088 137.74904833 -206.24249268 133.52838135 C-203.05693802 131.67525146 -200.73676711 131.70692973 -197.05761719 131.73339844 C-196.37428314 131.73281433 -195.6909491 131.73223022 -194.98690796 131.73162842 C-192.73554101 131.734408 -190.48550968 131.76549092 -188.234375 131.796875 C-186.670682 131.80433791 -185.10697963 131.81003061 -183.54327393 131.81402588 C-179.43308567 131.82927846 -175.32346529 131.8685564 -171.21350098 131.9128418 C-167.01741213 131.95380299 -162.82123127 131.97203867 -158.625 131.9921875 C-150.3955731 132.03505158 -142.16660725 132.10329767 -133.9375 132.1875 C-133.95321045 130.98440186 -133.9689209 129.78130371 -133.98510742 128.54174805 C-134.04033863 123.98110941 -134.07418068 119.4204987 -134.10229492 114.85961914 C-134.11717325 112.90383905 -134.1374823 110.94809101 -134.16381836 108.99243164 C-134.55849711 78.88076437 -128.83818849 51.01049261 -107.9375 28.1875 C-107.16664063 27.33542969 -106.39578125 26.48335937 -105.6015625 25.60546875 C-92.33523891 11.63074924 -74.63065365 1.75266606 -55.9375 -2.8125 C-55.05835938 -3.03679688 -54.17921875 -3.26109375 -53.2734375 -3.4921875 C-36.329897 -7.05667873 -16.21706299 -6.23091271 0 0 Z M-96.4453125 41.02734375 C-110.7798886 58.37900421 -117.17109843 78.50168838 -117.03515625 100.9375 C-117.03414917 101.73542969 -117.03314209 102.53335938 -117.03210449 103.35546875 C-117.02692332 106.29949406 -117.0129626 109.24349867 -117 112.1875 C-116.979375 118.7875 -116.95875 125.3875 -116.9375 132.1875 C-97.4675 132.1875 -77.9975 132.1875 -57.9375 132.1875 C-57.72852658 118.84712863 -57.72852658 118.84712863 -57.54956055 105.50634766 C-57.02596833 74.15534966 -48.87815499 46.58607432 -26.75 23.6875 C-24.28485592 21.30770714 -21.75204108 19.26406556 -18.9375 17.3125 C-17.9475 16.61125 -16.9575 15.91 -15.9375 15.1875 C-15.9375 14.5275 -15.9375 13.8675 -15.9375 13.1875 C-45.59946679 7.21626937 -76.54257094 18.489504 -96.4453125 41.02734375 Z M27.0625 13.1875 C29.34966746 16.33235525 31.79167884 18.88316062 34.75 21.375 C54.70488357 38.59025206 65.58254197 63.22809677 68.0625 89.1875 C68.24216091 92.58233892 68.31581136 95.97620643 68.37890625 99.375 C68.39755737 100.21224609 68.4162085 101.04949219 68.4354248 101.91210938 C68.50310483 105.00381126 68.56364499 108.09566613 68.625 111.1875 C68.769375 118.1175 68.91375 125.0475 69.0625 132.1875 C88.5325 132.1875 108.0025 132.1875 128.0625 132.1875 C128.124375 125.773125 128.18625 119.35875 128.25 112.75 C128.27731201 110.76427979 128.30462402 108.77855957 128.33276367 106.73266602 C128.5571633 78.77876223 121.35128644 55.93094605 102.0625 35.1875 C86.30460564 20.20841426 64.97204418 11.70222045 43.3125 12 C41.95318359 12.0009668 41.95318359 12.0009668 40.56640625 12.00195312 C35.95809618 12.03222669 31.5946944 12.24954586 27.0625 13.1875 Z M-17.9375 38.1875 C-43.20937184 64.73358387 -40.9375 96.33577308 -40.9375 132.1875 C-10.2475 132.1875 20.4425 132.1875 52.0625 132.1875 C52.47156443 78.06924558 52.47156443 78.06924558 26.0625 35.1875 C7.54485589 18.08319632 -0.86127792 21.85446804 -17.9375 38.1875 Z M-192.9375 149.1875 C-197.65420416 190.63250971 -202.36828201 232.07781698 -207.078244 273.52359347 C-207.63400985 278.41408752 -208.18980012 283.3045788 -208.74560547 288.19506836 C-208.85625822 289.16869722 -208.96691096 290.14232609 -209.08091682 291.14545885 C-210.87381593 306.92058347 -212.6686938 322.69548235 -214.4643001 338.47029903 C-216.30603253 354.65073547 -218.14564515 370.83141189 -219.98328066 387.01231414 C-221.11771821 397.00076038 -222.25381862 406.98901462 -223.39203131 416.97703139 C-224.17186161 423.82158582 -224.94963701 430.66637178 -225.72578228 437.51134505 C-226.17396675 441.46342341 -226.62307053 445.41539172 -227.07460976 449.36708832 C-227.48780878 452.98342319 -227.89843215 456.60004081 -228.3069914 460.21690271 C-228.52581467 462.14803486 -228.74740886 464.07885241 -228.96909475 466.00965804 C-229.09798039 467.15520024 -229.22686603 468.30074244 -229.35965729 469.48099804 C-229.52825311 470.96361607 -229.52825311 470.96361607 -229.70025492 472.47618598 C-229.92442296 475.03805134 -229.9375 477.61584577 -229.9375 480.1875 C-198.2575 480.1875 -166.5775 480.1875 -133.9375 480.1875 C-133.50165442 440.55314034 -133.50165442 440.55314034 -133.16015625 400.91796875 C-133.15497522 400.19605716 -133.14979418 399.47414558 -133.14445615 398.73035789 C-132.78573599 348.21710728 -132.8567639 297.70170568 -132.875 247.1875 C-132.87542423 245.97795387 -132.87584846 244.76840774 -132.87628555 243.52220869 C-132.88749889 212.07729688 -132.90892811 180.63240071 -132.9375 149.1875 C-152.7375 149.1875 -172.5375 149.1875 -192.9375 149.1875 Z M-115.9375 149.1875 C-116.07130463 174.33067161 -116.20221443 199.47385387 -116.32865143 224.61706352 C-116.3811496 235.0427238 -116.43386371 245.46838187 -116.48988724 255.8940239 C-116.89109088 330.6603031 -116.9375 405.41866136 -116.9375 480.1875 C-0.4475 480.1875 116.0425 480.1875 236.0625 480.1875 C235.39914994 470.90059917 234.63797817 461.70749465 233.57554626 452.46939087 C233.42768395 451.16294282 233.27982165 449.85649478 233.12747866 448.5104574 C232.72188467 444.92748987 232.31270862 441.34493961 231.90288675 437.76245356 C231.4597361 433.88287777 231.0199934 430.00291546 230.57981873 426.1230011 C229.81835457 419.41517375 229.0547727 412.70759026 228.28971672 406.00017166 C227.18360231 396.30258914 226.08073718 386.60463922 224.97864301 376.90659909 C223.19011013 361.16891807 221.39898093 345.43153369 219.60620117 329.69433594 C217.86557178 314.4148694 216.12617623 299.13526322 214.38842773 283.85546875 C214.22752406 282.44066955 214.22752406 282.44066955 214.0633698 280.99728854 C213.52519379 276.26512912 212.9870419 271.53296695 212.44890201 266.80080342 C207.99050814 227.59594289 203.52773195 188.39158226 199.0625 149.1875 C181.2425 149.1875 163.4225 149.1875 145.0625 149.1875 C145.0625 170.6375 145.0625 192.0875 145.0625 214.1875 C139.4525 214.1875 133.8425 214.1875 128.0625 214.1875 C128.0625 192.7375 128.0625 171.2875 128.0625 149.1875 C72.2925 149.1875 16.5225 149.1875 -40.9375 149.1875 C-40.9375 170.6375 -40.9375 192.0875 -40.9375 214.1875 C-46.5475 214.1875 -52.1575 214.1875 -57.9375 214.1875 C-57.9375 192.7375 -57.9375 171.2875 -57.9375 149.1875 C-77.0775 149.1875 -96.2175 149.1875 -115.9375 149.1875 Z " fill="#000000" transform="translate(252.9375,9.8125)" /></svg>