<?xml version="1.0" encoding="UTF-8"?>
<svg xmlns="http://www.w3.org/2000/svg" xmlns:xlink="http://www.w3.org/1999/xlink" width="236px" height="81px" viewBox="0 0 235 81" version="1.1">
<g id="surface1">
<path style=" stroke:none;fill-rule:nonzero;fill:rgb(99.607843%,99.607843%,99.607843%);fill-opacity:1;" d="M 0.652344 0 C 77.773438 0 154.890625 0 234.347656 0 C 234.347656 26.730469 234.347656 53.460938 234.347656 81 C 157.226562 81 80.109375 81 0.652344 81 C 0.652344 54.269531 0.652344 27.539062 0.652344 0 Z M 0.652344 0 "/>
<path style=" stroke:none;fill-rule:nonzero;fill:rgb(1.960784%,1.960784%,1.960784%);fill-opacity:1;" d="M 208.507812 9.003906 C 208.949219 9.246094 209.394531 9.492188 209.835938 9.738281 C 211.433594 10.640625 212.832031 11.453125 214.121094 12.75 C 214.492188 12.875 214.867188 13 215.25 13.125 C 216.292969 14.226562 217.210938 15.425781 218.140625 16.632812 C 218.457031 17.039062 218.777344 17.449219 219.097656 17.855469 C 221.785156 21.269531 223.589844 24.757812 224.984375 28.875 C 225.070312 29.121094 225.152344 29.363281 225.238281 29.613281 C 228.101562 38.273438 226.292969 46.875 222.5 54.917969 C 221.035156 57.796875 219.273438 60.222656 217.121094 62.621094 C 216.917969 62.859375 216.71875 63.09375 216.507812 63.332031 C 212.566406 67.59375 207.527344 70.09375 202.140625 71.996094 C 201.886719 72.089844 201.632812 72.179688 201.371094 72.273438 C 193.292969 75.003906 184.277344 73.71875 176.671875 70.125 C 175.246094 69.324219 173.894531 68.441406 172.550781 67.5 C 172.289062 67.316406 172.023438 67.140625 171.753906 66.949219 C 165.363281 62.394531 161.726562 56.351562 159.070312 49.125 C 158.957031 48.839844 158.847656 48.554688 158.730469 48.257812 C 157.804688 45.617188 157.773438 42.984375 157.800781 40.214844 C 157.808594 39.421875 157.800781 38.636719 157.792969 37.851562 C 157.777344 28.976562 161.5625 20.863281 167.636719 14.507812 C 172.476562 9.910156 177.769531 7.074219 184.164062 5.25 C 184.441406 5.164062 184.722656 5.082031 185.011719 4.996094 C 193.050781 2.953125 201.488281 4.984375 208.507812 9.003906 Z M 208.507812 9.003906 "/>
<path style=" stroke:none;fill-rule:nonzero;fill:rgb(98.039216%,98.039216%,98.039216%);fill-opacity:1;" d="M 212.9375 13.203125 C 214.492188 13.773438 215.601562 14.957031 216.746094 16.125 C 216.496094 16.25 216.253906 16.371094 215.996094 16.5 C 215.75 16.375 215.503906 16.253906 215.25 16.125 C 215.433594 16.492188 215.433594 16.492188 215.621094 16.875 C 216.027344 16.96875 216.429688 17.058594 216.851562 17.152344 C 218.511719 17.71875 219.082031 18.46875 219.929688 19.921875 C 220.066406 20.152344 220.210938 20.382812 220.351562 20.621094 C 223.332031 25.660156 225.714844 31.175781 225.363281 37.125 C 225.113281 37.125 224.867188 37.125 224.613281 37.125 C 224.648438 37.589844 224.6875 38.054688 224.730469 38.53125 C 224.722656 39.804688 224.703125 40.019531 223.816406 41.015625 C 222.726562 41.632812 221.695312 42.035156 220.492188 42.371094 C 220.492188 42.746094 220.492188 43.117188 220.492188 43.5 C 221.601562 43.3125 221.601562 43.3125 222.734375 43.125 C 222.769531 44.664062 222.679688 45.414062 221.601562 46.5625 C 221.296875 46.847656 220.992188 47.140625 220.679688 47.433594 C 218.695312 49.472656 218.746094 51.074219 218.722656 53.820312 C 218.589844 55.476562 218.121094 56.1875 217.023438 57.386719 C 215.96875 58.582031 215.234375 59.972656 214.425781 61.34375 C 213.65625 62.371094 213.046875 62.847656 211.878906 63.375 C 210.820312 63.445312 210.820312 63.445312 210.003906 63.375 C 209.898438 62.933594 209.796875 62.488281 209.691406 62.03125 C 209.550781 61.449219 209.414062 60.867188 209.277344 60.28125 C 209.210938 59.988281 209.144531 59.699219 209.074219 59.398438 C 209.007812 59.117188 208.941406 58.832031 208.867188 58.539062 C 208.808594 58.28125 208.75 58.023438 208.683594 57.753906 C 208.5625 57.234375 208.425781 56.714844 208.273438 56.203125 C 208.128906 55.5 208.128906 55.5 208.507812 54.75 C 208.582031 53.210938 208.617188 52.085938 208.128906 50.625 C 207.648438 49.179688 207.707031 48.015625 207.757812 46.5 C 206.445312 46.257812 205.308594 46.113281 203.96875 46.207031 C 200.855469 46.410156 200.855469 46.410156 199.355469 45.683594 C 198.28125 44.710938 197.730469 43.847656 197.558594 42.382812 C 197.359375 37.605469 197.359375 37.605469 198.75 35.804688 C 199.515625 35.25 199.515625 35.25 200.265625 35.25 C 200.273438 34.910156 200.28125 34.570312 200.289062 34.21875 C 200.671875 32.878906 200.769531 32.777344 201.90625 32.128906 C 203.308594 31.476562 204.351562 31.074219 205.886719 31.078125 C 206.140625 31.078125 206.394531 31.074219 206.65625 31.074219 C 207.382812 31.125 207.382812 31.125 208.507812 31.496094 C 208.507812 31.992188 208.507812 32.488281 208.507812 33 C 209.5 33.402344 210.484375 33.785156 211.5 34.125 C 211.5 33.875 211.5 33.632812 211.5 33.375 C 213.234375 33.621094 214.960938 33.871094 216.746094 34.125 C 216.746094 33.632812 216.746094 33.136719 216.746094 32.625 C 215.449219 32.070312 215.449219 32.070312 214.121094 31.496094 C 214.121094 30.878906 214.121094 30.261719 214.121094 29.625 C 213.753906 29.808594 213.753906 29.808594 213.375 30.003906 C 213.132812 30.757812 213.132812 30.757812 213 31.496094 C 212.628906 31.496094 212.261719 31.496094 211.878906 31.496094 C 211.753906 31.128906 211.628906 30.757812 211.5 30.375 C 211.253906 30.375 211.003906 30.375 210.753906 30.375 C 210.566406 30.746094 210.566406 30.746094 210.378906 31.125 C 210.003906 31.003906 209.636719 30.875 209.257812 30.746094 C 208.996094 29.976562 208.996094 29.976562 208.878906 29.253906 C 208.382812 29.125 207.890625 29.003906 207.382812 28.875 C 207.382812 28.503906 207.382812 28.132812 207.382812 27.75 C 205.453125 28.648438 205.453125 28.648438 204.222656 30.28125 C 204.152344 30.558594 204.085938 30.839844 204.011719 31.125 C 202.902344 31.125 201.785156 31.125 200.640625 31.125 C 200.765625 30.136719 200.886719 29.144531 201.015625 28.125 C 201.796875 27.914062 202.453125 27.75 203.265625 27.75 C 203.140625 26.882812 203.015625 26.015625 202.886719 25.125 C 203.210938 25 203.539062 24.878906 203.871094 24.75 C 205.503906 23.78125 206.34375 22.558594 207.382812 21 C 207.507812 21.371094 207.628906 21.738281 207.757812 22.121094 C 208.007812 22.121094 208.25 22.121094 208.507812 22.121094 C 208.507812 21.503906 208.507812 20.886719 208.507812 20.25 C 207.765625 20.25 207.023438 20.25 206.257812 20.25 C 206.140625 18.898438 206.148438 18.179688 206.859375 17 C 207.257812 16.53125 207.257812 16.53125 207.664062 16.054688 C 207.925781 15.738281 208.183594 15.425781 208.457031 15.101562 C 209.902344 13.558594 210.726562 12.851562 212.9375 13.203125 Z M 212.9375 13.203125 "/>
<path style=" stroke:none;fill-rule:nonzero;fill:rgb(97.254902%,97.254902%,97.254902%);fill-opacity:1;" d="M 174.425781 10.125 C 174.675781 10.125 174.917969 10.125 175.175781 10.125 C 175.175781 10.371094 175.175781 10.621094 175.175781 10.875 C 175.546875 10.753906 175.917969 10.625 176.296875 10.496094 C 176.820312 10.476562 177.339844 10.46875 177.867188 10.476562 C 178.574219 10.488281 178.574219 10.488281 179.292969 10.496094 C 179.476562 10.871094 179.476562 10.871094 179.667969 11.246094 C 179.953125 11.410156 180.238281 11.574219 180.535156 11.742188 C 181.671875 12.457031 182.320312 13.117188 183.039062 14.25 C 182.945312 15.117188 182.945312 15.117188 182.664062 15.75 C 182.414062 15.75 182.171875 15.75 181.914062 15.75 C 181.914062 16.121094 181.914062 16.492188 181.914062 16.875 C 180.585938 17.304688 180.117188 17.285156 178.804688 16.714844 C 178.46875 16.519531 178.136719 16.324219 177.796875 16.125 C 177.796875 15.875 177.796875 15.632812 177.796875 15.375 C 178.167969 15.25 178.539062 15.125 178.917969 15 C 178.734375 14.070312 178.734375 14.070312 178.542969 13.125 C 178.050781 13.003906 177.554688 12.875 177.046875 12.75 C 176.980469 13.175781 176.980469 13.175781 176.90625 13.617188 C 176.671875 14.625 176.671875 14.625 175.921875 15.75 C 176.167969 15.75 176.417969 15.75 176.671875 15.75 C 176.671875 16 176.671875 16.242188 176.671875 16.5 C 176.421875 16.5 176.179688 16.5 175.921875 16.5 C 175.921875 16.75 175.921875 16.992188 175.921875 17.25 C 175.550781 17.125 175.183594 17.003906 174.800781 16.875 C 174.800781 16.625 174.800781 16.382812 174.800781 16.125 C 173.195312 17.066406 172.3125 17.671875 171.804688 19.5 C 172.113281 19.644531 172.113281 19.644531 172.433594 19.789062 C 172.839844 19.984375 172.839844 19.984375 173.257812 20.179688 C 173.527344 20.304688 173.792969 20.433594 174.074219 20.5625 C 174.800781 21 174.800781 21 175.550781 22.121094 C 176.789062 20.449219 176.917969 18.890625 177.046875 16.875 C 177.914062 17 178.78125 17.121094 179.667969 17.25 C 179.855469 18.179688 179.855469 18.179688 180.042969 19.128906 C 180.660156 19 181.277344 18.878906 181.914062 18.75 C 182.421875 19.582031 182.921875 20.417969 183.414062 21.253906 C 183.558594 21.488281 183.699219 21.726562 183.847656 21.96875 C 184.640625 23.320312 185.101562 24.292969 184.910156 25.875 C 184.171875 25.75 183.429688 25.628906 182.664062 25.5 C 182.789062 25.007812 182.910156 24.511719 183.039062 24 C 181.921875 24.292969 181.921875 24.292969 180.792969 24.75 C 180.667969 25.125 180.542969 25.492188 180.417969 25.875 C 180.667969 25.875 180.910156 25.875 181.167969 25.875 C 180.792969 27 180.792969 27 180.070312 27.457031 C 179.773438 27.597656 179.484375 27.742188 179.175781 27.890625 C 177.429688 28.820312 176.398438 29.769531 175.527344 31.570312 C 175.175781 32.246094 175.175781 32.246094 174.050781 33 C 173.832031 33.824219 173.832031 33.824219 173.792969 34.734375 C 173.769531 35.039062 173.746094 35.34375 173.71875 35.660156 C 173.707031 35.898438 173.691406 36.132812 173.675781 36.375 C 173.429688 36.375 173.179688 36.375 172.929688 36.375 C 172.558594 35.632812 172.183594 34.890625 171.804688 34.125 C 170.335938 33.949219 169.457031 34.054688 168.292969 34.949219 C 167.222656 35.890625 167.222656 35.890625 167.167969 37.054688 C 167.21875 37.324219 167.265625 37.597656 167.308594 37.875 C 168.691406 38.230469 169.671875 38.230469 171.054688 37.875 C 170.929688 38.738281 170.808594 39.605469 170.679688 40.5 C 171.175781 40.5 171.671875 40.5 172.179688 40.5 C 172.179688 41.367188 172.179688 42.230469 172.179688 43.125 C 173.257812 43.21875 173.257812 43.21875 174.425781 43.125 C 174.582031 42.933594 174.746094 42.746094 174.910156 42.546875 C 175.550781 42 175.550781 42 176.699219 41.988281 C 177.128906 42.054688 177.5625 42.117188 178.003906 42.1875 C 178.4375 42.246094 178.871094 42.300781 179.320312 42.363281 C 180.417969 42.75 180.417969 42.75 180.875 43.695312 C 180.972656 44 181.070312 44.308594 181.167969 44.625 C 182.257812 45.09375 182.257812 45.09375 183.414062 45.375 C 183.78125 45.625 184.15625 45.867188 184.539062 46.125 C 184.609375 47.109375 184.609375 47.109375 184.539062 48 C 184.808594 48.046875 185.074219 48.09375 185.347656 48.140625 C 186.429688 48.378906 187.378906 48.726562 188.398438 49.148438 C 188.730469 49.28125 189.0625 49.421875 189.402344 49.558594 C 189.773438 49.714844 189.773438 49.714844 190.15625 49.875 C 190.203125 52.359375 190.203125 52.359375 189.78125 53.625 C 189.535156 53.625 189.285156 53.625 189.03125 53.625 C 188.984375 54.101562 188.984375 54.101562 188.933594 54.585938 C 188.882812 54.992188 188.824219 55.40625 188.773438 55.832031 C 188.722656 56.238281 188.679688 56.648438 188.628906 57.066406 C 188.457031 57.589844 188.457031 57.589844 188.28125 58.125 C 187.363281 58.550781 187.363281 58.550781 186.410156 58.878906 C 185.925781 59.539062 185.925781 59.539062 185.640625 60.328125 C 185.066406 61.597656 184.539062 62.503906 183.414062 63.375 C 183.042969 63.375 182.671875 63.375 182.289062 63.375 C 182.414062 63.867188 182.539062 64.363281 182.664062 64.875 C 182.308594 65.046875 181.957031 65.214844 181.589844 65.390625 C 180.695312 65.964844 180.445312 66.285156 180.101562 67.308594 C 179.921875 68.246094 179.773438 69.175781 179.667969 70.125 C 178.773438 69.910156 177.921875 69.664062 177.046875 69.375 C 176.5625 68.398438 176.621094 67.671875 176.628906 66.589844 C 176.628906 66.222656 176.621094 65.859375 176.621094 65.484375 C 176.671875 64.5 176.671875 64.5 177.046875 63.375 C 177.523438 59.101562 177.523438 59.101562 176.039062 55.265625 C 175.632812 54.835938 175.21875 54.417969 174.800781 54 C 173.144531 51.851562 172.40625 50.394531 172.550781 47.625 C 172.925781 47.066406 172.925781 47.066406 173.300781 46.5 C 173.414062 45.582031 173.414062 45.582031 172.929688 44.625 C 171.242188 42.960938 169.167969 41.953125 167.058594 40.929688 C 164.117188 39.488281 164.117188 39.488281 163.425781 37.597656 C 163.347656 37.191406 163.269531 36.789062 163.1875 36.375 C 162.816406 36.742188 162.816406 36.742188 162.441406 37.125 C 160.515625 34.277344 159.710938 31.167969 160.195312 27.75 C 161.714844 22.429688 165.339844 18.097656 169.183594 14.25 C 170.542969 13.71875 171.449219 13.5 172.929688 13.5 C 172.929688 13.003906 172.929688 12.507812 172.929688 11.996094 C 173.175781 11.996094 173.417969 11.996094 173.675781 11.996094 C 174.242188 12.75 174.242188 12.75 174.800781 13.5 C 175.046875 13.5 175.296875 13.5 175.550781 13.5 C 175.671875 13.253906 175.796875 13.003906 175.921875 12.75 C 175.550781 12.625 175.183594 12.503906 174.800781 12.375 C 174.800781 12.003906 174.800781 11.628906 174.800781 11.246094 C 174.429688 11.375 174.058594 11.496094 173.675781 11.625 C 173.925781 11.128906 174.167969 10.636719 174.425781 10.125 Z M 174.425781 10.125 "/>
<path style=" stroke:none;fill-rule:nonzero;fill:rgb(47.058824%,20.392157%,63.921571%);fill-opacity:1;" d="M 148.480469 21.117188 C 149.695312 22.019531 150.859375 23.027344 151.582031 24.375 C 151.09375 25.839844 150.414062 26.179688 149.167969 27.066406 C 148.796875 27.339844 148.429688 27.609375 148.046875 27.882812 C 147.085938 28.503906 147.085938 28.503906 146.339844 28.503906 C 146.144531 28.222656 145.953125 27.941406 145.753906 27.65625 C 144.152344 25.847656 142.488281 25.242188 140.109375 24.964844 C 137.609375 24.878906 135.507812 24.847656 133.472656 26.414062 C 131.636719 28.160156 129.972656 29.792969 129.746094 32.410156 C 129.734375 36.300781 130.011719 38.707031 132.855469 41.621094 C 135.253906 43.316406 137.472656 43.75 140.347656 43.5 C 142.757812 43.019531 144.734375 42.019531 146.339844 40.128906 C 146.828125 39.261719 147.324219 38.390625 147.832031 37.5 C 144.871094 37.5 141.902344 37.5 138.847656 37.5 C 138.847656 35.398438 138.847656 33.292969 138.847656 31.125 C 144.160156 31.125 149.476562 31.125 154.953125 31.125 C 154.953125 37.25 154.28125 41.332031 150.128906 45.746094 C 146.613281 49.054688 142.398438 50.453125 137.632812 50.34375 C 133.578125 49.976562 129.65625 47.949219 126.863281 45 C 123.574219 40.953125 122.625 36.667969 123.019531 31.558594 C 123.578125 26.941406 126.34375 23.699219 129.835938 20.855469 C 135.542969 16.9375 142.753906 17.484375 148.480469 21.117188 Z M 148.480469 21.117188 "/>
<path style=" stroke:none;fill-rule:nonzero;fill:rgb(17.254902%,80.392158%,76.862746%);fill-opacity:1;" d="M 12.265625 18.378906 C 28.152344 18.378906 28.152344 18.378906 31.691406 20.53125 C 34.460938 23.46875 34.9375 26.359375 34.863281 30.277344 C 34.714844 33.027344 33.503906 34.738281 31.527344 36.558594 C 30.609375 37.324219 29.894531 37.613281 28.742188 37.875 C 29.347656 38.765625 29.957031 39.65625 30.566406 40.546875 C 30.753906 40.816406 30.933594 41.085938 31.125 41.363281 C 32.058594 42.726562 33 44.078125 33.96875 45.414062 C 34.136719 45.65625 34.3125 45.894531 34.488281 46.140625 C 34.820312 46.59375 35.148438 47.042969 35.484375 47.496094 C 36.605469 49.042969 36.605469 49.042969 36.605469 49.875 C 34.09375 50.410156 31.566406 50.847656 29.113281 49.875 C 26.765625 47.78125 25.203125 44.941406 23.683594 42.210938 C 23.160156 41.25 23.160156 41.25 22.496094 40.472656 C 21.902344 39.613281 21.867188 39.164062 21.886719 38.128906 C 21.894531 37.824219 21.898438 37.53125 21.898438 37.21875 C 21.910156 36.90625 21.917969 36.601562 21.929688 36.28125 C 21.941406 35.808594 21.941406 35.808594 21.945312 35.324219 C 21.960938 34.550781 21.980469 33.773438 22 33 C 22.277344 32.96875 22.550781 32.9375 22.835938 32.902344 C 24.539062 32.65625 25.839844 32.425781 27.316406 31.496094 C 28.289062 29.886719 28.378906 28.460938 27.992188 26.625 C 26.789062 25.210938 26.109375 25.125 24.246094 24.75 C 22.394531 24.628906 20.535156 24.5 18.628906 24.375 C 18.628906 32.789062 18.628906 41.203125 18.628906 49.875 C 16.527344 49.875 14.425781 49.875 12.265625 49.875 C 12.265625 39.480469 12.265625 29.082031 12.265625 18.378906 Z M 12.265625 18.378906 "/>
<path style=" stroke:none;fill-rule:nonzero;fill:rgb(1.960784%,1.960784%,1.960784%);fill-opacity:1;" d="M 159.070312 31.125 C 159.320312 31.125 159.5625 31.125 159.816406 31.125 C 159.914062 31.375 160.011719 31.625 160.109375 31.878906 C 160.773438 33.589844 161.417969 35.214844 162.441406 36.75 C 162.691406 36.503906 162.933594 36.253906 163.1875 36 C 163.9375 36.75 163.9375 36.75 163.984375 37.921875 C 163.96875 38.28125 163.953125 38.632812 163.9375 39 C 164.1875 39.085938 164.433594 39.167969 164.6875 39.261719 C 165.902344 39.789062 166.953125 40.449219 168.070312 41.167969 C 168.855469 41.671875 168.855469 41.671875 169.957031 42.164062 C 171.375 42.917969 172.667969 43.726562 173.675781 45 C 173.675781 46.242188 173.675781 46.242188 173.300781 47.25 C 173.179688 47.375 173.050781 47.496094 172.929688 47.625 C 172.625 50.074219 173.433594 51.621094 174.800781 53.625 C 175.371094 54.351562 175.960938 55.039062 176.585938 55.722656 C 177.730469 57.03125 177.480469 58.519531 177.46875 60.164062 C 177.46875 60.601562 177.46875 60.601562 177.472656 61.046875 C 177.46875 62.292969 177.441406 63.3125 177.046875 64.5 C 176.964844 65.332031 176.894531 66.167969 176.835938 67.007812 C 176.804688 67.449219 176.773438 67.894531 176.738281 68.347656 C 176.707031 68.855469 176.707031 68.855469 176.671875 69.375 C 172.429688 68.804688 168.90625 64.898438 166.1875 61.871094 C 165.867188 61.519531 165.546875 61.167969 165.214844 60.804688 C 162.308594 57.332031 160.628906 53.355469 159.070312 49.125 C 158.957031 48.839844 158.847656 48.558594 158.730469 48.261719 C 157.785156 45.578125 157.773438 42.898438 157.800781 40.085938 C 157.808594 39.273438 157.800781 38.46875 157.792969 37.65625 C 157.792969 37.132812 157.792969 36.609375 157.800781 36.085938 C 157.800781 35.621094 157.800781 35.152344 157.804688 34.671875 C 157.957031 33.261719 158.363281 32.34375 159.070312 31.125 Z M 159.070312 31.125 "/>
<path style=" stroke:none;fill-rule:nonzero;fill:rgb(24.313726%,65.490198%,73.333335%);fill-opacity:1;" d="M 56.441406 28.457031 C 59.144531 29.941406 60.773438 32.371094 62.023438 35.15625 C 62.449219 36.75 62.449219 36.75 62.449219 41.621094 C 57.253906 41.75 52.0625 41.871094 46.71875 42 C 48.90625 43.769531 48.90625 43.769531 51.554688 43.964844 C 52.441406 43.910156 52.441406 43.910156 53.527344 43.265625 C 54.582031 42.75 54.582031 42.75 55.496094 42.886719 C 56.886719 43.777344 57.960938 44.917969 59.078125 46.125 C 58.539062 47.476562 57.960938 47.960938 56.691406 48.632812 C 56.398438 48.789062 56.113281 48.945312 55.8125 49.105469 C 53.121094 50.34375 49.554688 50.378906 46.730469 49.546875 C 43.28125 47.925781 41.273438 45.628906 39.933594 42.066406 C 39.105469 39.085938 39.308594 36.300781 40.609375 33.492188 C 43.875 27.714844 50.386719 25.597656 56.441406 28.457031 Z M 56.441406 28.457031 "/>
<path style=" stroke:none;fill-rule:nonzero;fill:rgb(30.588236%,49.803922%,70.588237%);fill-opacity:1;" d="M 67.691406 27.375 C 69.667969 27.375 71.648438 27.375 73.683594 27.375 C 73.683594 27.746094 73.683594 28.121094 73.683594 28.503906 C 73.953125 28.378906 74.21875 28.257812 74.5 28.132812 C 77.238281 27.140625 79.992188 27.621094 82.585938 28.804688 C 85.101562 30.152344 86.394531 31.953125 87.539062 34.5 C 87.992188 36.054688 87.960938 37.574219 87.953125 39.183594 C 87.953125 39.488281 87.953125 39.796875 87.945312 40.105469 C 87.945312 41.082031 87.941406 42.054688 87.9375 43.03125 C 87.9375 43.695312 87.929688 44.351562 87.929688 45.015625 C 87.925781 46.632812 87.921875 48.257812 87.914062 49.875 C 85.9375 49.875 83.957031 49.875 81.921875 49.875 C 81.902344 48.945312 81.882812 48.015625 81.867188 47.058594 C 81.847656 46.15625 81.828125 45.25 81.800781 44.347656 C 81.785156 43.726562 81.777344 43.097656 81.765625 42.46875 C 81.746094 41.570312 81.726562 40.667969 81.703125 39.765625 C 81.699219 39.488281 81.695312 39.207031 81.6875 38.921875 C 81.648438 37.53125 81.617188 36.40625 80.796875 35.25 C 79.507812 34.375 78.757812 34.121094 77.191406 34.144531 C 75.820312 34.527344 75.304688 34.890625 74.433594 36 C 73.851562 37.167969 73.96875 38.414062 73.9375 39.695312 C 73.933594 39.984375 73.921875 40.277344 73.917969 40.570312 C 73.890625 41.5 73.867188 42.429688 73.84375 43.359375 C 73.832031 43.992188 73.816406 44.617188 73.800781 45.246094 C 73.757812 46.789062 73.71875 48.332031 73.683594 49.875 C 71.703125 49.875 69.730469 49.875 67.691406 49.875 C 67.691406 42.449219 67.691406 35.023438 67.691406 27.375 Z M 67.691406 27.375 "/>
<path style=" stroke:none;fill-rule:nonzero;fill:rgb(39.607844%,34.901962%,67.058825%);fill-opacity:1;" d="M 101.394531 20.25 C 101.394531 22.601562 101.394531 24.949219 101.394531 27.375 C 103.496094 27.375 105.597656 27.375 107.765625 27.375 C 107.765625 29.230469 107.765625 31.089844 107.765625 33 C 105.664062 33 103.5625 33 101.394531 33 C 101.347656 37.96875 101.347656 37.96875 103.265625 42.371094 C 104.667969 43.5 105.996094 43.894531 107.765625 44.25 C 107.765625 46.230469 107.765625 48.210938 107.765625 50.253906 C 103.917969 50.253906 101.199219 49.171875 98.402344 46.5 C 95.824219 43.3125 95.289062 40.578125 95.332031 36.554688 C 95.332031 36.140625 95.332031 35.726562 95.335938 35.300781 C 95.335938 33.988281 95.347656 32.671875 95.355469 31.359375 C 95.363281 30.46875 95.367188 29.574219 95.367188 28.679688 C 95.378906 26.496094 95.386719 24.3125 95.402344 22.121094 C 96.191406 21.8125 96.976562 21.5 97.769531 21.1875 C 98.207031 21.015625 98.644531 20.84375 99.101562 20.660156 C 100.273438 20.25 100.273438 20.25 101.394531 20.25 Z M 101.394531 20.25 "/>
<path style=" stroke:none;fill-rule:nonzero;fill:rgb(96.862745%,96.862745%,96.862745%);fill-opacity:1;" d="M 191.722656 5.550781 C 192.035156 5.550781 192.34375 5.550781 192.667969 5.550781 C 194.722656 5.574219 196.726562 5.742188 198.769531 6 C 198.644531 6.992188 198.519531 7.980469 198.394531 9.003906 C 198.148438 9.003906 197.898438 9.003906 197.644531 9.003906 C 197.667969 9.257812 197.691406 9.511719 197.714844 9.773438 C 197.617188 11.308594 197.347656 12.1875 196.523438 13.5 C 195.609375 13.882812 194.699219 14.09375 193.742188 14.324219 C 191.785156 14.933594 190.550781 16.289062 189.429688 17.953125 C 189.300781 18.214844 189.167969 18.480469 189.03125 18.75 C 187.800781 18.535156 187.195312 18.230469 186.410156 17.25 C 186.28125 16.503906 186.28125 16.503906 186.300781 15.660156 C 186.300781 15.359375 186.308594 15.058594 186.3125 14.753906 C 186.320312 14.4375 186.332031 14.125 186.335938 13.804688 C 186.34375 13.488281 186.347656 13.171875 186.351562 12.84375 C 186.367188 12.0625 186.386719 11.285156 186.410156 10.496094 C 185.894531 10.339844 185.894531 10.339844 185.363281 10.171875 C 184.039062 9.707031 183.03125 9.105469 181.914062 8.253906 C 181.914062 8.003906 181.914062 7.757812 181.914062 7.5 C 182.410156 7.375 182.90625 7.25 183.414062 7.125 C 183.414062 6.878906 183.414062 6.628906 183.414062 6.375 C 186.191406 5.742188 188.886719 5.550781 191.722656 5.550781 Z M 191.722656 5.550781 "/>
<path style=" stroke:none;fill-rule:nonzero;fill:rgb(94.509804%,98.823529%,98.823529%);fill-opacity:1;" d="M 18.628906 24.375 C 25.652344 24.375 25.652344 24.375 27.785156 25.683594 C 28.71875 27.183594 28.640625 28.660156 28.363281 30.375 C 27.65625 31.6875 27.15625 32.113281 25.816406 32.742188 C 24.511719 33.023438 23.332031 33.019531 22 33 C 22.042969 34.101562 22.09375 35.203125 22.136719 36.304688 C 22.152344 36.617188 22.164062 36.925781 22.175781 37.25 C 22.1875 37.550781 22.203125 37.851562 22.21875 38.164062 C 22.230469 38.4375 22.242188 38.71875 22.253906 39.003906 C 22.34375 39.867188 22.34375 39.867188 23.121094 40.871094 C 22.019531 40.570312 22.019531 40.570312 20.878906 40.128906 C 20.691406 39.566406 20.691406 39.566406 20.5 39 C 19.550781 40.386719 19.230469 41.347656 19.183594 43.027344 C 19.175781 43.429688 19.160156 43.828125 19.144531 44.242188 C 19.140625 44.652344 19.128906 45.066406 19.121094 45.492188 C 19.109375 45.914062 19.09375 46.332031 19.082031 46.765625 C 19.054688 47.804688 19.027344 48.839844 19.003906 49.875 C 18.878906 49.875 18.757812 49.875 18.628906 49.875 C 18.628906 41.460938 18.628906 33.042969 18.628906 24.375 Z M 18.628906 24.375 "/>
<path style=" stroke:none;fill-rule:nonzero;fill:rgb(4.705882%,4.705882%,4.705882%);fill-opacity:1;" d="M 214.5 13.125 C 214.742188 13.125 214.992188 13.125 215.25 13.125 C 216.46875 14.417969 217.527344 15.847656 218.621094 17.25 C 218.777344 17.449219 218.933594 17.652344 219.097656 17.855469 C 221.785156 21.269531 223.589844 24.761719 224.984375 28.875 C 225.070312 29.121094 225.152344 29.363281 225.238281 29.613281 C 228.089844 38.246094 226.398438 47.09375 222.410156 55.050781 C 220.667969 58.414062 220.667969 58.414062 219.742188 58.878906 C 219.496094 58.75 219.246094 58.628906 218.992188 58.5 C 218.992188 57.507812 218.992188 56.519531 218.992188 55.5 C 218.746094 55.375 218.496094 55.253906 218.242188 55.125 C 218.082031 50.296875 218.082031 50.296875 219.367188 48.382812 C 219.964844 47.761719 220.578125 47.15625 221.199219 46.5625 C 222.269531 45.457031 222.511719 44.625 222.734375 43.125 C 221.625 43.3125 221.625 43.3125 220.492188 43.5 C 220.492188 43.128906 220.492188 42.753906 220.492188 42.371094 C 220.847656 42.179688 220.847656 42.179688 221.214844 41.980469 C 221.527344 41.804688 221.832031 41.636719 222.152344 41.460938 C 222.460938 41.292969 222.769531 41.121094 223.085938 40.949219 C 223.832031 40.5625 223.832031 40.5625 224.234375 40.128906 C 224.320312 39.621094 224.386719 39.113281 224.449219 38.601562 C 224.5 38.117188 224.554688 37.625 224.613281 37.125 C 224.855469 37.125 225.105469 37.125 225.363281 37.125 C 224.796875 31.191406 223.179688 26.167969 220.113281 21 C 219.925781 20.664062 219.734375 20.320312 219.542969 19.972656 C 218.378906 18.023438 218.378906 18.023438 216.417969 17.039062 C 216.035156 16.984375 215.644531 16.933594 215.25 16.875 C 215.25 16.625 215.25 16.382812 215.25 16.125 C 215.617188 16.125 215.988281 16.125 216.371094 16.125 C 215.628906 15.503906 214.886719 14.886719 214.121094 14.25 C 214.25 13.882812 214.371094 13.507812 214.5 13.125 Z M 214.5 13.125 "/>
<path style=" stroke:none;fill-rule:nonzero;fill:rgb(21.960784%,21.960784%,21.960784%);fill-opacity:1;" d="M 197.644531 4.875 C 197.519531 5.246094 197.398438 5.617188 197.269531 6 C 197.011719 5.996094 196.75 5.996094 196.480469 5.996094 C 195.277344 5.984375 194.074219 5.980469 192.871094 5.976562 C 192.460938 5.972656 192.054688 5.972656 191.632812 5.964844 C 188.871094 5.960938 186.160156 6.097656 183.414062 6.375 C 183.414062 6.625 183.414062 6.867188 183.414062 7.125 C 183.175781 7.171875 182.9375 7.214844 182.6875 7.265625 C 182.429688 7.34375 182.175781 7.421875 181.914062 7.5 C 181.792969 7.746094 181.671875 7.996094 181.542969 8.253906 C 181.542969 8.003906 181.542969 7.757812 181.542969 7.5 C 180.199219 8.4375 180.199219 8.4375 179.351562 9.78125 C 178.917969 10.496094 178.917969 10.496094 178.03125 10.726562 C 177.6875 10.746094 177.351562 10.761719 177 10.785156 C 176.65625 10.804688 176.316406 10.824219 175.96875 10.84375 C 175.703125 10.855469 175.445312 10.863281 175.175781 10.875 C 175.175781 10.625 175.175781 10.378906 175.175781 10.125 C 174.800781 10.496094 174.433594 10.863281 174.050781 11.246094 C 174.296875 11.246094 174.546875 11.246094 174.800781 11.246094 C 174.984375 11.808594 174.984375 11.808594 175.175781 12.375 C 175.425781 12.496094 175.667969 12.621094 175.921875 12.75 C 175.738281 13.304688 175.738281 13.304688 175.550781 13.875 C 174.820312 13.570312 174.820312 13.570312 174.050781 13.125 C 173.863281 12.570312 173.863281 12.570312 173.675781 11.996094 C 173.429688 11.996094 173.179688 11.996094 172.929688 11.996094 C 172.929688 12.492188 172.929688 12.988281 172.929688 13.5 C 172.691406 13.542969 172.457031 13.59375 172.214844 13.640625 C 167.753906 14.71875 165.628906 18.128906 163.296875 21.820312 C 160.925781 25.710938 159.859375 29.125 160.945312 33.632812 C 161.066406 34.042969 161.191406 34.453125 161.316406 34.875 C 161.074219 34.753906 160.824219 34.625 160.566406 34.5 C 160.332031 33.722656 160.332031 33.722656 160.148438 32.789062 C 160.082031 32.476562 160.023438 32.171875 159.957031 31.851562 C 159.910156 31.609375 159.863281 31.371094 159.816406 31.125 C 159.574219 31.125 159.324219 31.125 159.070312 31.125 C 158.824219 31.621094 158.574219 32.113281 158.324219 32.625 C 159.144531 24.007812 165.003906 16.582031 171.429688 11.246094 C 171.625 11.078125 171.824219 10.917969 172.027344 10.742188 C 175.429688 8.0625 180.050781 6.421875 184.164062 5.25 C 184.441406 5.164062 184.722656 5.082031 185.011719 4.996094 C 188.902344 4.007812 193.722656 4.074219 197.644531 4.875 Z M 197.644531 4.875 "/>
<path style=" stroke:none;fill-rule:nonzero;fill:rgb(8.627451%,8.627451%,8.627451%);fill-opacity:1;" d="M 207.382812 27.75 C 207.382812 28.121094 207.382812 28.492188 207.382812 28.875 C 208.308594 29.058594 208.308594 29.058594 209.257812 29.253906 C 209.300781 29.492188 209.347656 29.730469 209.394531 29.976562 C 209.46875 30.230469 209.550781 30.488281 209.628906 30.746094 C 209.878906 30.875 210.121094 30.996094 210.378906 31.125 C 210.5 30.753906 210.628906 30.378906 210.753906 30.003906 C 211.121094 30.125 211.496094 30.246094 211.878906 30.375 C 211.878906 30.746094 211.878906 31.113281 211.878906 31.496094 C 212.25 31.496094 212.617188 31.496094 213 31.496094 C 213.121094 30.878906 213.25 30.261719 213.375 29.625 C 213.621094 29.625 213.871094 29.625 214.121094 29.625 C 214.132812 29.910156 214.136719 30.195312 214.148438 30.492188 C 214.421875 31.65625 214.421875 31.65625 215.835938 32.179688 C 216.257812 32.324219 216.679688 32.472656 217.121094 32.625 C 216.996094 33.121094 216.871094 33.617188 216.746094 34.125 C 216.152344 34.144531 215.558594 34.160156 214.96875 34.171875 C 214.472656 34.1875 214.472656 34.1875 213.964844 34.199219 C 212.957031 34.121094 212.363281 33.886719 211.5 33.375 C 211.5 33.621094 211.5 33.871094 211.5 34.125 C 210.402344 33.890625 209.496094 33.527344 208.507812 33 C 208.507812 32.503906 208.507812 32.007812 208.507812 31.496094 C 207.859375 31.488281 207.210938 31.480469 206.5625 31.476562 C 206.203125 31.472656 205.84375 31.46875 205.472656 31.460938 C 204.390625 31.46875 204.390625 31.46875 203.367188 31.710938 C 202.320312 31.910156 201.902344 31.679688 201.015625 31.125 C 202.003906 31.003906 202.992188 30.875 204.011719 30.746094 C 204.09375 30.460938 204.183594 30.175781 204.269531 29.886719 C 204.917969 28.558594 205.855469 27.75 207.382812 27.75 Z M 207.382812 27.75 "/>
<path style=" stroke:none;fill-rule:nonzero;fill:rgb(7.058824%,7.058824%,7.058824%);fill-opacity:1;" d="M 177.046875 12.75 C 177.972656 12.9375 177.972656 12.9375 178.917969 13.125 C 179.042969 13.742188 179.167969 14.359375 179.292969 15 C 178.800781 15.125 178.304688 15.25 177.796875 15.375 C 177.796875 15.621094 177.796875 15.871094 177.796875 16.125 C 178.339844 16.25 178.886719 16.375 179.433594 16.5 C 179.738281 16.570312 180.042969 16.636719 180.355469 16.714844 C 181.152344 16.902344 181.152344 16.902344 181.914062 16.875 C 181.671875 16.253906 181.421875 15.636719 181.167969 15 C 181.539062 15.125 181.910156 15.25 182.289062 15.375 C 182.359375 16.265625 182.359375 16.265625 182.289062 17.25 C 181.921875 17.5 181.546875 17.746094 181.167969 18 C 181.539062 18.121094 181.910156 18.25 182.289062 18.378906 C 182.164062 18.621094 182.042969 18.871094 181.914062 19.128906 C 181.300781 19.128906 180.683594 19.128906 180.042969 19.128906 C 179.921875 18.503906 179.792969 17.886719 179.667969 17.25 C 178.804688 17.125 177.9375 17.003906 177.046875 16.875 C 177.066406 17.089844 177.082031 17.308594 177.101562 17.535156 C 177.199219 19.71875 176.9375 20.800781 175.550781 22.5 C 175.300781 22.378906 175.058594 22.25 174.800781 22.121094 C 174.800781 21.753906 174.800781 21.382812 174.800781 21 C 174.519531 20.960938 174.246094 20.921875 173.957031 20.882812 C 172.863281 20.605469 172.277344 20.222656 171.429688 19.5 C 171.933594 17.847656 172.625 17.085938 174.050781 16.125 C 174.800781 16.125 174.800781 16.125 175.410156 16.6875 C 175.578125 16.871094 175.75 17.058594 175.921875 17.25 C 175.921875 17.003906 175.921875 16.753906 175.921875 16.5 C 176.167969 16.5 176.417969 16.5 176.671875 16.5 C 176.671875 16.253906 176.671875 16.003906 176.671875 15.75 C 176.421875 15.75 176.179688 15.75 175.921875 15.75 C 176.039062 15.535156 176.152344 15.316406 176.277344 15.09375 C 176.644531 14.308594 176.867188 13.59375 177.046875 12.75 Z M 177.046875 12.75 "/>
<path style=" stroke:none;fill-rule:nonzero;fill:rgb(35.294119%,48.627451%,63.529414%);fill-opacity:1;" d="M 67.691406 27.375 C 69.667969 27.375 71.648438 27.375 73.683594 27.375 C 73.683594 27.625 73.683594 27.871094 73.683594 28.125 C 72.074219 28.125 70.46875 28.125 68.8125 28.125 C 68.800781 28.738281 68.796875 29.34375 68.785156 29.972656 C 68.75 32.226562 68.710938 34.484375 68.675781 36.734375 C 68.660156 37.714844 68.644531 38.6875 68.628906 39.667969 C 68.609375 41.066406 68.582031 42.46875 68.558594 43.875 C 68.550781 44.3125 68.546875 44.75 68.535156 45.199219 C 68.53125 45.609375 68.519531 46.011719 68.515625 46.429688 C 68.511719 46.789062 68.507812 47.148438 68.5 47.515625 C 68.441406 48.375 68.441406 48.375 68.0625 49.125 C 70.65625 49.308594 70.65625 49.308594 73.308594 49.503906 C 73.183594 48.878906 73.058594 48.261719 72.933594 47.625 C 72.890625 45.90625 72.9375 44.179688 72.984375 42.460938 C 73.003906 41.628906 73.015625 40.796875 73.023438 39.964844 C 73.039062 39.433594 73.050781 38.898438 73.066406 38.367188 C 73.082031 37.648438 73.082031 37.648438 73.097656 36.90625 C 73.339844 35.433594 73.765625 34.804688 74.804688 33.75 C 75.839844 33.234375 76.695312 33.339844 77.847656 33.351562 C 78.257812 33.355469 78.667969 33.359375 79.09375 33.359375 C 79.566406 33.371094 79.566406 33.371094 80.046875 33.375 C 80.234375 34.117188 80.234375 34.117188 80.425781 34.875 C 80.042969 34.675781 80.042969 34.675781 79.648438 34.476562 C 78.242188 34.023438 77.359375 34.136719 75.929688 34.5 C 75.058594 35.207031 74.554688 35.753906 74.054688 36.75 C 74 37.734375 73.957031 38.707031 73.9375 39.695312 C 73.933594 39.984375 73.921875 40.277344 73.917969 40.570312 C 73.890625 41.5 73.867188 42.429688 73.84375 43.359375 C 73.832031 43.992188 73.816406 44.617188 73.800781 45.246094 C 73.757812 46.789062 73.71875 48.332031 73.683594 49.875 C 71.703125 49.875 69.730469 49.875 67.691406 49.875 C 67.691406 42.449219 67.691406 35.023438 67.691406 27.375 Z M 67.691406 27.375 "/>
<path style=" stroke:none;fill-rule:nonzero;fill:rgb(89.803922%,89.803922%,89.803922%);fill-opacity:1;" d="M 174.425781 10.125 C 174.675781 10.125 174.917969 10.125 175.175781 10.125 C 175.175781 10.371094 175.175781 10.621094 175.175781 10.875 C 175.546875 10.753906 175.917969 10.625 176.296875 10.496094 C 176.820312 10.476562 177.339844 10.46875 177.867188 10.476562 C 178.574219 10.488281 178.574219 10.488281 179.292969 10.496094 C 179.417969 10.746094 179.539062 10.992188 179.667969 11.246094 C 179.953125 11.410156 180.238281 11.574219 180.535156 11.742188 C 181.671875 12.457031 182.320312 13.117188 183.039062 14.25 C 182.945312 15.117188 182.945312 15.117188 182.664062 15.75 C 182.414062 15.75 182.171875 15.75 181.914062 15.75 C 181.914062 16.121094 181.914062 16.492188 181.914062 16.875 C 180.585938 17.304688 180.117188 17.285156 178.804688 16.714844 C 178.46875 16.519531 178.136719 16.324219 177.796875 16.125 C 177.796875 15.875 177.796875 15.632812 177.796875 15.375 C 178.167969 15.25 178.539062 15.125 178.917969 15 C 178.792969 14.382812 178.671875 13.761719 178.542969 13.125 C 178.050781 13.003906 177.554688 12.875 177.046875 12.75 C 176.921875 13.242188 176.800781 13.738281 176.671875 14.25 C 176.570312 14.007812 176.46875 13.769531 176.367188 13.523438 C 175.964844 12.625 175.964844 12.625 174.800781 12.375 C 174.800781 12.003906 174.800781 11.628906 174.800781 11.246094 C 174.429688 11.375 174.058594 11.496094 173.675781 11.625 C 173.925781 11.128906 174.167969 10.636719 174.425781 10.125 Z M 174.425781 10.125 "/>
<path style=" stroke:none;fill-rule:nonzero;fill:rgb(32.156864%,32.156864%,32.156864%);fill-opacity:1;" d="M 214.5 13.125 C 214.742188 13.125 214.992188 13.125 215.25 13.125 C 216.46875 14.417969 217.527344 15.847656 218.621094 17.25 C 218.777344 17.449219 218.933594 17.652344 219.097656 17.855469 C 221.785156 21.269531 223.589844 24.761719 224.984375 28.875 C 225.070312 29.121094 225.152344 29.363281 225.238281 29.613281 C 226.773438 34.253906 227.324219 39.847656 226.105469 44.625 C 225.984375 44.625 225.859375 44.625 225.734375 44.625 C 225.734375 42.277344 225.734375 39.921875 225.734375 37.5 C 225.175781 37.316406 225.175781 37.316406 224.613281 37.125 C 224.855469 37.125 225.105469 37.125 225.363281 37.125 C 224.796875 31.191406 223.179688 26.167969 220.113281 21 C 219.925781 20.664062 219.734375 20.320312 219.542969 19.972656 C 218.378906 18.023438 218.378906 18.023438 216.417969 17.039062 C 216.035156 16.984375 215.644531 16.933594 215.25 16.875 C 215.25 16.625 215.25 16.382812 215.25 16.125 C 215.617188 16.125 215.988281 16.125 216.371094 16.125 C 215.628906 15.503906 214.886719 14.886719 214.121094 14.25 C 214.25 13.882812 214.371094 13.507812 214.5 13.125 Z M 214.5 13.125 "/>
<path style=" stroke:none;fill-rule:nonzero;fill:rgb(20.784314%,20.784314%,20.784314%);fill-opacity:1;" d="M 197.644531 4.875 C 197.519531 5.246094 197.398438 5.617188 197.269531 6 C 197.011719 5.996094 196.75 5.996094 196.480469 5.996094 C 195.277344 5.984375 194.074219 5.980469 192.871094 5.976562 C 192.257812 5.972656 192.257812 5.972656 191.632812 5.964844 C 188.871094 5.960938 186.160156 6.097656 183.414062 6.375 C 183.414062 6.625 183.414062 6.867188 183.414062 7.125 C 183.175781 7.171875 182.9375 7.214844 182.6875 7.265625 C 182.429688 7.34375 182.175781 7.421875 181.914062 7.5 C 181.792969 7.746094 181.671875 7.996094 181.542969 8.253906 C 181.542969 8.003906 181.542969 7.757812 181.542969 7.5 C 181.359375 7.691406 181.175781 7.878906 180.992188 8.074219 C 178.6875 10.3125 178.6875 10.3125 176.863281 10.289062 C 176.429688 10.238281 175.996094 10.179688 175.550781 10.125 C 175.550781 9.878906 175.550781 9.628906 175.550781 9.375 C 176.039062 9.375 176.535156 9.375 177.046875 9.375 C 177.046875 9.128906 177.046875 8.878906 177.046875 8.625 C 176.800781 8.503906 176.550781 8.378906 176.296875 8.253906 C 177.5 7.789062 178.699219 7.324219 179.894531 6.863281 C 180.609375 6.589844 181.320312 6.3125 182.023438 6.027344 C 186.832031 4.101562 192.578125 3.835938 197.644531 4.875 Z M 197.644531 4.875 "/>
<path style=" stroke:none;fill-rule:nonzero;fill:rgb(96.078432%,98.823529%,98.823529%);fill-opacity:1;" d="M 46.34375 41.621094 C 51.535156 41.621094 56.726562 41.621094 62.070312 41.621094 C 62.070312 41.75 62.070312 41.871094 62.070312 42 C 60.339844 42.121094 58.613281 42.246094 56.828125 42.371094 C 56.703125 42.746094 56.582031 43.117188 56.457031 43.5 C 56.191406 43.414062 55.929688 43.332031 55.660156 43.242188 C 54.546875 43.019531 54.546875 43.019531 53.527344 43.664062 C 52.058594 44.382812 50.949219 44.546875 49.339844 44.25 C 47.933594 43.496094 47.230469 42.953125 46.34375 41.621094 Z M 46.34375 41.621094 "/>
<path style=" stroke:none;fill-rule:nonzero;fill:rgb(93.333334%,98.039216%,97.647059%);fill-opacity:1;" d="M 53.085938 33.375 C 54.097656 33.894531 54.5625 34.375 55.332031 35.25 C 55.332031 35.375 55.332031 35.5 55.332031 35.625 C 52.488281 35.625 49.648438 35.625 46.71875 35.625 C 48.113281 32.835938 50.25 32.992188 53.085938 33.375 Z M 53.085938 33.375 "/>
<path style=" stroke:none;fill-rule:nonzero;fill:rgb(12.941177%,12.941177%,12.941177%);fill-opacity:1;" d="M 177.046875 12.75 C 177.664062 12.875 178.285156 13 178.917969 13.125 C 179.042969 13.742188 179.167969 14.359375 179.292969 15 C 178.800781 15.125 178.304688 15.25 177.796875 15.375 C 177.796875 15.621094 177.796875 15.871094 177.796875 16.125 C 178.339844 16.25 178.886719 16.375 179.433594 16.5 C 179.738281 16.570312 180.042969 16.636719 180.355469 16.714844 C 181.152344 16.902344 181.152344 16.902344 181.914062 16.875 C 181.671875 16.253906 181.421875 15.636719 181.167969 15 C 181.539062 15.125 181.910156 15.25 182.289062 15.375 C 182.359375 16.265625 182.359375 16.265625 182.289062 17.25 C 181.921875 17.5 181.546875 17.746094 181.167969 18 C 181.539062 18.121094 181.910156 18.25 182.289062 18.378906 C 182.164062 18.621094 182.042969 18.871094 181.914062 19.128906 C 181.300781 19.128906 180.683594 19.128906 180.042969 19.128906 C 179.921875 18.503906 179.792969 17.886719 179.667969 17.25 C 178.804688 17.125 177.9375 17.003906 177.046875 16.875 C 177.046875 17.988281 177.046875 19.101562 177.046875 20.25 C 176.921875 20.25 176.800781 20.25 176.671875 20.25 C 176.671875 18.765625 176.671875 17.28125 176.671875 15.75 C 176.421875 15.75 176.179688 15.75 175.921875 15.75 C 176.097656 15.425781 176.097656 15.425781 176.277344 15.09375 C 176.644531 14.308594 176.867188 13.59375 177.046875 12.75 Z M 177.046875 12.75 "/>
<path style=" stroke:none;fill-rule:nonzero;fill:rgb(89.803922%,89.803922%,89.803922%);fill-opacity:1;" d="M 194.648438 16.875 C 195.023438 17.25 195.023438 17.25 195.140625 18.324219 C 195.023438 19.5 195.023438 19.5 194.371094 20.179688 C 193.542969 20.617188 192.957031 20.914062 192.027344 21 C 191.1875 20.648438 191.1875 20.648438 190.53125 20.25 C 190.652344 19.152344 190.753906 18.253906 191.324219 17.296875 C 192.421875 16.636719 193.40625 16.785156 194.648438 16.875 Z M 194.648438 16.875 "/>
<path style=" stroke:none;fill-rule:nonzero;fill:rgb(91.764706%,97.254902%,98.823529%);fill-opacity:1;" d="M 79.675781 34.5 C 80.515625 34.835938 81.0625 35.089844 81.59375 35.839844 C 82.0625 37.140625 82.015625 38.402344 81.996094 39.765625 C 81.996094 40.054688 81.996094 40.347656 81.988281 40.644531 C 81.984375 41.566406 81.980469 42.484375 81.96875 43.402344 C 81.964844 44.03125 81.960938 44.660156 81.960938 45.28125 C 81.949219 46.8125 81.933594 48.34375 81.921875 49.875 C 83.898438 49.875 85.875 49.875 87.914062 49.875 C 87.914062 49.996094 87.914062 50.125 87.914062 50.253906 C 84.765625 50.4375 84.765625 50.4375 81.546875 50.625 C 81.109375 49.296875 81.160156 48.140625 81.199219 46.761719 C 81.210938 46.210938 81.21875 45.664062 81.230469 45.113281 C 81.246094 44.246094 81.265625 43.382812 81.292969 42.519531 C 81.316406 41.683594 81.332031 40.847656 81.34375 40.011719 C 81.359375 39.628906 81.359375 39.628906 81.371094 39.238281 C 81.386719 37.140625 80.703125 36.304688 79.300781 34.875 C 79.425781 34.753906 79.546875 34.625 79.675781 34.5 Z M 79.675781 34.5 "/>
<path style=" stroke:none;fill-rule:nonzero;fill:rgb(21.176471%,21.176471%,21.176471%);fill-opacity:1;" d="M 177.046875 8.625 C 177.046875 8.875 177.046875 9.121094 177.046875 9.375 C 176.550781 9.375 176.054688 9.375 175.550781 9.375 C 175.550781 9.625 175.550781 9.871094 175.550781 10.125 C 177.484375 9.972656 177.484375 9.972656 179.292969 9.375 C 179.171875 9.746094 179.042969 10.121094 178.917969 10.496094 C 177.683594 10.625 176.449219 10.746094 175.175781 10.875 C 175.175781 10.625 175.175781 10.378906 175.175781 10.125 C 174.800781 10.496094 174.433594 10.863281 174.050781 11.246094 C 174.296875 11.246094 174.546875 11.246094 174.800781 11.246094 C 174.925781 11.621094 175.046875 11.992188 175.175781 12.375 C 175.425781 12.496094 175.667969 12.621094 175.921875 12.75 C 175.800781 13.121094 175.679688 13.492188 175.550781 13.875 C 174.820312 13.570312 174.820312 13.570312 174.050781 13.125 C 173.929688 12.753906 173.800781 12.378906 173.675781 11.996094 C 173.523438 12.191406 173.367188 12.386719 173.210938 12.585938 C 172.992188 12.761719 172.777344 12.941406 172.550781 13.125 C 171.78125 12.984375 171.78125 12.984375 171.054688 12.75 C 170.6875 12.9375 170.6875 12.9375 170.304688 13.125 C 170.828125 11.875 171.410156 11.242188 172.507812 10.453125 C 172.761719 10.269531 173.011719 10.078125 173.277344 9.890625 C 174.664062 8.964844 175.332031 8.625 177.046875 8.625 Z M 177.046875 8.625 "/>
<path style=" stroke:none;fill-rule:nonzero;fill:rgb(36.078432%,49.803922%,65.098041%);fill-opacity:1;" d="M 81.921875 36.75 C 82.167969 36.75 82.417969 36.75 82.667969 36.75 C 82.667969 40.960938 82.667969 45.164062 82.667969 49.503906 C 84.03125 49.503906 85.390625 49.503906 86.789062 49.503906 C 86.910156 49.128906 87.039062 48.757812 87.167969 48.375 C 87.410156 48.496094 87.660156 48.625 87.914062 48.753906 C 87.914062 49.121094 87.914062 49.492188 87.914062 49.875 C 85.9375 49.875 83.957031 49.875 81.921875 49.875 C 81.921875 45.542969 81.921875 41.214844 81.921875 36.75 Z M 81.921875 36.75 "/>
<path style=" stroke:none;fill-rule:nonzero;fill:rgb(34.901962%,49.411765%,65.098041%);fill-opacity:1;" d="M 85.292969 31.496094 C 86.800781 32.746094 87.503906 34.117188 87.914062 36 C 88.046875 38.128906 88.019531 40.246094 87.980469 42.371094 C 87.976562 42.960938 87.972656 43.542969 87.96875 44.125 C 87.957031 45.542969 87.9375 46.957031 87.914062 48.375 C 87.011719 47.023438 87.035156 45.996094 87.007812 44.433594 C 87.003906 44.160156 86.992188 43.886719 86.988281 43.609375 C 86.96875 42.734375 86.945312 41.863281 86.933594 40.988281 C 86.917969 40.402344 86.902344 39.8125 86.886719 39.21875 C 86.851562 37.769531 86.820312 36.324219 86.789062 34.875 C 86.542969 34.875 86.292969 34.875 86.039062 34.875 C 85.792969 33.761719 85.542969 32.644531 85.292969 31.496094 Z M 85.292969 31.496094 "/>
<path style=" stroke:none;fill-rule:nonzero;fill:rgb(29.411766%,78.039217%,74.901962%);fill-opacity:1;" d="M 26.492188 18.75 C 29.222656 19.164062 31.34375 19.855469 33.050781 22.121094 C 34.476562 24.335938 34.800781 26.082031 34.800781 28.710938 C 34.804688 29.003906 34.8125 29.296875 34.816406 29.597656 C 34.820312 30.359375 34.78125 31.113281 34.734375 31.875 C 34.484375 32.121094 34.238281 32.371094 33.984375 32.625 C 33.984375 30.027344 33.984375 27.425781 33.984375 24.75 C 33.734375 24.75 33.492188 24.75 33.234375 24.75 C 33.132812 24.46875 33.035156 24.195312 32.929688 23.902344 C 32.023438 21.800781 30.792969 20.855469 28.742188 19.878906 C 27.996094 19.605469 27.253906 19.347656 26.492188 19.128906 C 26.492188 19 26.492188 18.878906 26.492188 18.75 Z M 26.492188 18.75 "/>
<path style=" stroke:none;fill-rule:nonzero;fill:rgb(24.705882%,24.705882%,24.705882%);fill-opacity:1;" d="M 214.5 13.125 C 214.742188 13.125 214.992188 13.125 215.25 13.125 C 216.445312 14.433594 217.519531 15.855469 218.621094 17.25 C 218.890625 17.574219 219.160156 17.902344 219.433594 18.234375 C 219.675781 18.53125 219.914062 18.820312 220.164062 19.128906 C 220.378906 19.386719 220.597656 19.652344 220.824219 19.921875 C 220.960938 20.152344 221.097656 20.386719 221.242188 20.621094 C 221.117188 20.996094 220.992188 21.367188 220.863281 21.75 C 220.433594 21.203125 220.007812 20.660156 219.578125 20.105469 C 219.339844 19.804688 219.097656 19.5 218.855469 19.1875 C 218.242188 18.378906 218.242188 18.378906 217.871094 17.625 C 217.003906 17.351562 216.125 17.101562 215.25 16.875 C 215.25 16.625 215.25 16.382812 215.25 16.125 C 215.617188 16.125 215.988281 16.125 216.371094 16.125 C 215.628906 15.503906 214.886719 14.886719 214.121094 14.25 C 214.25 13.882812 214.371094 13.507812 214.5 13.125 Z M 214.5 13.125 "/>
<path style=" stroke:none;fill-rule:nonzero;fill:rgb(39.215687%,35.294119%,60.000002%);fill-opacity:1;" d="M 95.402344 22.121094 C 95.773438 22.25 96.148438 22.371094 96.53125 22.5 C 96.402344 22.621094 96.28125 22.746094 96.152344 22.875 C 96.117188 23.996094 96.101562 25.113281 96.101562 26.234375 C 96.101562 26.574219 96.101562 26.910156 96.101562 27.261719 C 96.101562 27.976562 96.101562 28.695312 96.105469 29.410156 C 96.105469 30.507812 96.105469 31.605469 96.101562 32.703125 C 96.101562 33.402344 96.101562 34.09375 96.101562 34.789062 C 96.101562 35.121094 96.101562 35.449219 96.101562 35.789062 C 96.101562 36.097656 96.101562 36.402344 96.105469 36.71875 C 96.105469 36.988281 96.105469 37.253906 96.105469 37.535156 C 96.125 38.335938 96.125 38.335938 96.53125 39.378906 C 96.402344 39.621094 96.28125 39.871094 96.152344 40.128906 C 95.90625 40.128906 95.65625 40.128906 95.402344 40.128906 C 95.402344 34.1875 95.402344 28.246094 95.402344 22.121094 Z M 95.402344 22.121094 "/>
<path style=" stroke:none;fill-rule:nonzero;fill:rgb(26.666668%,77.254903%,74.117649%);fill-opacity:1;" d="M 26.871094 32.625 C 25.132812 33.617188 24.488281 33.75 22.371094 33.75 C 22.5 35.726562 22.621094 37.707031 22.75 39.75 C 23.117188 39.75 23.488281 39.75 23.871094 39.75 C 23.871094 40.367188 23.871094 40.988281 23.871094 41.621094 C 22.878906 40.851562 22.097656 40.238281 21.847656 38.964844 C 21.816406 38.054688 21.835938 37.164062 21.882812 36.257812 C 21.894531 35.941406 21.898438 35.632812 21.910156 35.308594 C 21.929688 34.539062 21.964844 33.769531 22 33 C 22.667969 32.867188 23.34375 32.734375 24.015625 32.601562 C 24.570312 32.492188 24.570312 32.492188 25.148438 32.375 C 26.121094 32.246094 26.121094 32.246094 26.871094 32.625 Z M 26.871094 32.625 "/>
<path style=" stroke:none;fill-rule:nonzero;fill:rgb(88.235295%,98.431373%,98.823529%);fill-opacity:1;" d="M 42.597656 30.003906 C 42.84375 30.125 43.09375 30.246094 43.347656 30.375 C 43.195312 30.558594 43.046875 30.738281 42.894531 30.925781 C 40.335938 34.171875 39.683594 36.730469 39.976562 40.871094 C 40.089844 41.5 40.210938 42.128906 40.351562 42.75 C 39.984375 42.628906 39.609375 42.5 39.226562 42.371094 C 38.960938 38.015625 38.960938 34.519531 41.476562 30.746094 C 41.84375 30.503906 42.214844 30.253906 42.597656 30.003906 Z M 42.597656 30.003906 "/>
<path style=" stroke:none;fill-rule:nonzero;fill:rgb(76.862746%,96.862745%,96.470588%);fill-opacity:1;" d="M 21.25 32.625 C 22.363281 32.625 23.472656 32.625 24.621094 32.625 C 24.621094 32.746094 24.621094 32.871094 24.621094 33 C 23.753906 33 22.894531 33 22 33 C 22.042969 34.101562 22.09375 35.203125 22.136719 36.304688 C 22.152344 36.617188 22.164062 36.925781 22.175781 37.25 C 22.1875 37.550781 22.203125 37.851562 22.21875 38.164062 C 22.230469 38.4375 22.242188 38.71875 22.253906 39.003906 C 22.34375 39.867188 22.34375 39.867188 23.121094 40.871094 C 22.195312 40.503906 22.195312 40.503906 21.25 40.128906 C 21.25 37.652344 21.25 35.175781 21.25 32.625 Z M 21.25 32.625 "/>
<path style=" stroke:none;fill-rule:nonzero;fill:rgb(43.921569%,40.784314%,64.313728%);fill-opacity:1;" d="M 101.394531 20.25 C 101.394531 22.601562 101.394531 24.949219 101.394531 27.375 C 101.273438 27.375 101.148438 27.375 101.023438 27.375 C 101.023438 25.273438 101.023438 23.167969 101.023438 21 C 100.648438 21 100.277344 21 99.902344 21 C 100.023438 21.371094 100.144531 21.738281 100.273438 22.121094 C 99.039062 22.25 97.800781 22.371094 96.53125 22.5 C 96.402344 22.25 96.28125 22.003906 96.152344 21.75 C 96.816406 21.5 97.476562 21.25 98.140625 21 C 98.511719 20.863281 98.878906 20.71875 99.261719 20.578125 C 100.273438 20.25 100.273438 20.25 101.394531 20.25 Z M 101.394531 20.25 "/>
<path style=" stroke:none;fill-rule:nonzero;fill:rgb(21.176471%,21.176471%,21.176471%);fill-opacity:1;" d="M 160.195312 26.625 C 160.578125 27.777344 160.582031 28.496094 160.546875 29.695312 C 160.523438 31.5625 160.78125 33.089844 161.316406 34.875 C 161.074219 34.753906 160.824219 34.625 160.566406 34.5 C 160.332031 33.722656 160.332031 33.722656 160.148438 32.789062 C 160.082031 32.476562 160.023438 32.171875 159.957031 31.851562 C 159.910156 31.609375 159.863281 31.371094 159.816406 31.125 C 159.574219 31.125 159.324219 31.125 159.070312 31.125 C 158.824219 31.621094 158.574219 32.113281 158.324219 32.625 C 158.511719 30.390625 159.214844 28.636719 160.195312 26.625 Z M 160.195312 26.625 "/>
<path style=" stroke:none;fill-rule:nonzero;fill:rgb(56.078434%,56.078434%,56.078434%);fill-opacity:1;" d="M 187.910156 4.5 C 189.113281 4.492188 190.308594 4.480469 191.515625 4.476562 C 192.019531 4.46875 192.019531 4.46875 192.539062 4.464844 C 194.28125 4.460938 195.925781 4.511719 197.644531 4.875 C 197.519531 5.246094 197.398438 5.617188 197.269531 6 C 195.992188 5.972656 194.710938 5.925781 193.429688 5.882812 C 192.886719 5.867188 192.886719 5.867188 192.335938 5.859375 C 191.808594 5.839844 191.808594 5.839844 191.273438 5.816406 C 190.953125 5.808594 190.632812 5.796875 190.300781 5.789062 C 189.246094 5.59375 188.707031 5.195312 187.910156 4.5 Z M 187.910156 4.5 "/>
<path style=" stroke:none;fill-rule:nonzero;fill:rgb(85.882354%,85.882354%,85.882354%);fill-opacity:1;" d="M 202.515625 19.878906 C 205.136719 22.5 205.136719 22.5 205.136719 24 C 204.269531 24.125 203.40625 24.246094 202.515625 24.375 C 202.515625 22.886719 202.515625 21.402344 202.515625 19.878906 Z M 202.515625 19.878906 "/>
<path style=" stroke:none;fill-rule:nonzero;fill:rgb(38.039216%,51.372552%,66.666669%);fill-opacity:1;" d="M 80.046875 33.375 C 80.175781 33.871094 80.296875 34.367188 80.425781 34.875 C 80.042969 34.675781 80.042969 34.675781 79.648438 34.476562 C 78.242188 34.023438 77.359375 34.136719 75.929688 34.5 C 75.070312 35.171875 75.070312 35.171875 74.433594 36 C 74.054688 36.375 73.683594 36.75 73.308594 37.125 C 73.398438 35.808594 73.554688 35.042969 74.359375 33.984375 C 76.203125 33.042969 78.023438 33.257812 80.046875 33.375 Z M 80.046875 33.375 "/>
<path style=" stroke:none;fill-rule:nonzero;fill:rgb(33.725491%,65.490198%,70.588237%);fill-opacity:1;" d="M 45.59375 28.503906 C 45.84375 28.625 46.085938 28.746094 46.34375 28.875 C 45.96875 28.996094 45.601562 29.125 45.21875 29.253906 C 45.21875 29.496094 45.21875 29.746094 45.21875 30.003906 C 44.878906 30.203125 44.542969 30.402344 44.191406 30.609375 C 42.859375 31.4375 42.410156 32.4375 41.832031 33.859375 C 41.476562 34.5 41.476562 34.5 40.351562 34.875 C 40.941406 32.253906 42.65625 30.410156 44.777344 28.847656 C 45.179688 28.675781 45.179688 28.675781 45.59375 28.503906 Z M 45.59375 28.503906 "/>
<path style=" stroke:none;fill-rule:nonzero;fill:rgb(48.235294%,29.803923%,60.784316%);fill-opacity:1;" d="M 145.960938 40.5 C 146.242188 41.160156 146.242188 41.160156 146.339844 42 C 145.507812 43.042969 144.988281 43.449219 143.71875 43.875 C 143.132812 43.898438 142.546875 43.910156 141.957031 43.898438 C 141.503906 43.894531 141.503906 43.894531 141.039062 43.886719 C 140.699219 43.882812 140.699219 43.882812 140.347656 43.875 C 140.347656 43.75 140.347656 43.628906 140.347656 43.5 C 140.667969 43.410156 140.667969 43.410156 141.003906 43.320312 C 143.070312 42.699219 144.394531 41.984375 145.960938 40.5 Z M 145.960938 40.5 "/>
<path style=" stroke:none;fill-rule:nonzero;fill:rgb(76.47059%,76.47059%,76.47059%);fill-opacity:1;" d="M 180.792969 7.875 C 178.988281 10.042969 178.988281 10.042969 177.730469 10.273438 C 176.90625 10.269531 176.90625 10.269531 175.550781 10.125 C 175.550781 9.878906 175.550781 9.628906 175.550781 9.375 C 176.167969 9.375 176.785156 9.375 177.421875 9.375 C 177.421875 9.128906 177.421875 8.878906 177.421875 8.625 C 179.527344 7.449219 179.527344 7.449219 180.792969 7.875 Z M 180.792969 7.875 "/>
<path style=" stroke:none;fill-rule:nonzero;fill:rgb(24.313726%,24.313726%,24.313726%);fill-opacity:1;" d="M 191.089844 4.851562 C 191.4375 4.851562 191.777344 4.851562 192.128906 4.859375 C 192.972656 4.863281 193.808594 4.867188 194.648438 4.875 C 194.648438 5 194.648438 5.125 194.648438 5.25 C 194.3125 5.273438 193.976562 5.296875 193.636719 5.316406 C 193.179688 5.347656 192.726562 5.382812 192.261719 5.414062 C 191.542969 5.464844 191.542969 5.464844 190.816406 5.511719 C 189.351562 5.628906 187.898438 5.796875 186.445312 6.007812 C 185.507812 6 184.960938 5.722656 184.164062 5.25 C 186.492188 4.902344 188.738281 4.828125 191.089844 4.851562 Z M 191.089844 4.851562 "/>
<path style=" stroke:none;fill-rule:nonzero;fill:rgb(80.000001%,80.000001%,80.000001%);fill-opacity:1;" d="M 220.863281 53.25 C 221.113281 53.25 221.359375 53.25 221.613281 53.25 C 221.386719 55.070312 220.59375 56.53125 219.742188 58.125 C 219.496094 58.125 219.246094 58.125 218.992188 58.125 C 219.15625 56.097656 219.582031 54.839844 220.863281 53.25 Z M 220.863281 53.25 "/>
<path style=" stroke:none;fill-rule:nonzero;fill:rgb(22.352941%,22.352941%,22.352941%);fill-opacity:1;" d="M 181.167969 15 C 181.539062 15.125 181.910156 15.25 182.289062 15.375 C 182.359375 16.265625 182.359375 16.265625 182.289062 17.25 C 181.921875 17.5 181.546875 17.746094 181.167969 18 C 181.539062 18.121094 181.910156 18.25 182.289062 18.378906 C 182.164062 18.621094 182.042969 18.871094 181.914062 19.128906 C 181.300781 19.128906 180.683594 19.128906 180.042969 19.128906 C 179.921875 18.503906 179.792969 17.886719 179.667969 17.25 C 179.171875 17.125 178.675781 17.003906 178.171875 16.875 C 179.554688 16.414062 180.492188 16.632812 181.914062 16.875 C 181.671875 16.253906 181.421875 15.636719 181.167969 15 Z M 181.167969 15 "/>
<path style=" stroke:none;fill-rule:nonzero;fill:rgb(81.960785%,95.294118%,96.862745%);fill-opacity:1;" d="M 53.457031 42.371094 C 54.078125 42.371094 54.695312 42.371094 55.332031 42.371094 C 53.5625 43.859375 52.4375 44.351562 50.089844 44.335938 C 49.023438 44.214844 48.3125 43.761719 47.464844 43.125 C 47.714844 43 47.957031 42.878906 48.214844 42.75 C 48.464844 42.871094 48.707031 42.996094 48.964844 43.125 C 49.667969 43.152344 50.371094 43.160156 51.070312 43.148438 C 51.445312 43.144531 51.824219 43.144531 52.207031 43.136719 C 52.496094 43.132812 52.789062 43.128906 53.085938 43.125 C 53.207031 42.878906 53.328125 42.628906 53.457031 42.371094 Z M 53.457031 42.371094 "/>
<path style=" stroke:none;fill-rule:nonzero;fill:rgb(87.843138%,98.431373%,99.215686%);fill-opacity:1;" d="M 53.457031 33.75 C 54.078125 34.371094 54.695312 34.988281 55.332031 35.625 C 52.488281 35.625 49.648438 35.625 46.71875 35.625 C 46.964844 35.132812 47.214844 34.636719 47.464844 34.125 C 47.714844 34.25 47.957031 34.371094 48.214844 34.5 C 48.089844 34.75 47.96875 34.992188 47.839844 35.25 C 50.808594 35.066406 50.808594 35.066406 53.832031 34.875 C 53.710938 34.503906 53.582031 34.132812 53.457031 33.75 Z M 53.457031 33.75 "/>
<path style=" stroke:none;fill-rule:nonzero;fill:rgb(45.09804%,23.137255%,60.000002%);fill-opacity:1;" d="M 148.960938 44.625 C 149.578125 44.625 150.195312 44.625 150.832031 44.625 C 149.695312 46.089844 148.78125 47.175781 147.085938 48 C 146.839844 48 146.59375 48 146.339844 48 C 146.457031 47.296875 146.457031 47.296875 146.710938 46.5 C 147.832031 45.75 147.832031 45.75 148.960938 45.75 C 148.960938 45.378906 148.960938 45.007812 148.960938 44.625 Z M 148.960938 44.625 "/>
<path style=" stroke:none;fill-rule:nonzero;fill:rgb(46.27451%,23.921569%,60.392159%);fill-opacity:1;" d="M 130.984375 40.128906 C 131.171875 40.277344 131.363281 40.421875 131.558594 40.578125 C 133.054688 41.730469 134.492188 42.71875 136.226562 43.5 C 135.546875 43.734375 135.546875 43.734375 134.726562 43.875 C 134.355469 43.628906 133.988281 43.378906 133.605469 43.125 C 133.484375 43.496094 133.355469 43.867188 133.226562 44.25 C 132.734375 44 132.238281 43.757812 131.734375 43.5 C 131.855469 43.25 131.976562 43.003906 132.105469 42.75 C 132.351562 42.871094 132.601562 42.996094 132.855469 43.125 C 132.542969 42.769531 132.238281 42.414062 131.917969 42.046875 C 130.984375 40.96875 130.984375 40.96875 130.984375 40.128906 Z M 130.984375 40.128906 "/>
<path style=" stroke:none;fill-rule:nonzero;fill:rgb(82.352942%,98.431373%,98.039216%);fill-opacity:1;" d="M 26.121094 25.125 C 27.042969 25.558594 27.636719 25.894531 28.363281 26.625 C 28.640625 28.4375 28.625 29.9375 27.6875 31.523438 C 26.871094 32.246094 26.871094 32.246094 25.742188 32.625 C 25.742188 32.253906 25.742188 31.878906 25.742188 31.496094 C 26.117188 31.375 26.488281 31.253906 26.871094 31.125 C 27.816406 29.828125 27.777344 28.558594 27.617188 27 C 26.921875 25.910156 26.921875 25.910156 26.121094 25.125 Z M 26.121094 25.125 "/>
<path style=" stroke:none;fill-rule:nonzero;fill:rgb(46.666667%,27.843139%,59.607846%);fill-opacity:1;" d="M 141.46875 24.75 C 142.011719 24.78125 142.546875 24.824219 143.085938 24.867188 C 143.382812 24.890625 143.683594 24.910156 143.992188 24.933594 C 144.988281 25.160156 145.351562 25.445312 145.960938 26.25 C 145.960938 26.496094 145.960938 26.746094 145.960938 27 C 146.578125 27.125 147.195312 27.246094 147.832031 27.375 C 147.464844 27.929688 147.464844 27.929688 147.085938 28.503906 C 146.839844 28.503906 146.59375 28.503906 146.339844 28.503906 C 146.144531 28.222656 145.953125 27.941406 145.753906 27.65625 C 144.527344 26.277344 143.164062 25.777344 141.46875 25.125 C 141.46875 25 141.46875 24.878906 141.46875 24.75 Z M 141.46875 24.75 "/>
<path style=" stroke:none;fill-rule:nonzero;fill:rgb(34.901962%,65.490198%,71.372551%);fill-opacity:1;" d="M 56.828125 44.25 C 57.570312 44.867188 58.3125 45.484375 59.078125 46.125 C 58.664062 47.246094 58.449219 47.566406 57.34375 48.09375 C 57.050781 48.1875 56.757812 48.277344 56.457031 48.375 C 56.457031 47.25 56.457031 47.25 57.203125 46.5 C 57.328125 46.25 57.449219 46.007812 57.578125 45.75 C 57.332031 45.75 57.082031 45.75 56.828125 45.75 C 56.828125 45.257812 56.828125 44.761719 56.828125 44.25 Z M 56.828125 44.25 "/>
<path style=" stroke:none;fill-rule:nonzero;fill:rgb(98.039216%,98.823529%,98.823529%);fill-opacity:1;" d="M 48.964844 33.75 C 50.449219 33.75 51.929688 33.75 53.457031 33.75 C 53.707031 34.242188 53.949219 34.738281 54.207031 35.25 C 53.09375 35.25 51.984375 35.25 50.835938 35.25 C 50.835938 35.003906 50.835938 34.753906 50.835938 34.5 C 50.21875 34.375 49.601562 34.253906 48.964844 34.125 C 48.964844 34.003906 48.964844 33.875 48.964844 33.75 Z M 48.964844 33.75 "/>
<path style=" stroke:none;fill-rule:nonzero;fill:rgb(47.058824%,27.843139%,61.56863%);fill-opacity:1;" d="M 148.960938 21.75 C 151.125 23.414062 151.125 23.414062 151.53125 24.492188 C 151.558594 24.808594 151.558594 24.808594 151.582031 25.125 C 150.175781 26.25 150.175781 26.25 149.332031 26.25 C 149.210938 25.878906 149.089844 25.507812 148.960938 25.125 C 149.457031 24.878906 149.945312 24.628906 150.457031 24.375 C 150.457031 24.128906 150.457031 23.878906 150.457031 23.625 C 150.089844 23.5 149.714844 23.378906 149.332031 23.25 C 149.078125 22.476562 149.078125 22.476562 148.960938 21.75 Z M 148.960938 21.75 "/>
<path style=" stroke:none;fill-rule:nonzero;fill:rgb(83.92157%,83.92157%,83.92157%);fill-opacity:1;" d="M 183.789062 22.875 C 184.347656 23.320312 184.347656 23.320312 184.910156 24 C 184.980469 25.007812 184.980469 25.007812 184.910156 25.875 C 183.796875 25.691406 183.796875 25.691406 182.664062 25.5 C 182.894531 24.390625 183.136719 23.859375 183.789062 22.875 Z M 183.789062 22.875 "/>
<path style=" stroke:none;fill-rule:nonzero;fill:rgb(29.411766%,29.411766%,29.411766%);fill-opacity:1;" d="M 171.054688 12.375 C 171.179688 12.621094 171.304688 12.871094 171.429688 13.125 C 171.796875 13.125 172.171875 13.125 172.550781 13.125 C 172.675781 12.875 172.800781 12.628906 172.929688 12.375 C 172.929688 12.75 172.929688 13.117188 172.929688 13.5 C 171.074219 14.054688 171.074219 14.054688 169.183594 14.625 C 168.9375 14.375 168.6875 14.132812 168.433594 13.875 C 169.246094 12.9375 169.828125 12.585938 171.054688 12.375 Z M 171.054688 12.375 "/>
<path style=" stroke:none;fill-rule:nonzero;fill:rgb(81.568629%,98.431373%,98.039216%);fill-opacity:1;" d="M 23.121094 41.25 C 24.238281 42.3125 25.148438 43.410156 26.023438 44.667969 C 26.371094 45.160156 26.371094 45.160156 26.722656 45.660156 C 27.242188 46.5 27.242188 46.5 27.242188 47.25 C 25.832031 46.777344 25.714844 46.25 24.996094 45 C 24.75 44.878906 24.5 44.75 24.246094 44.625 C 23.929688 43.847656 23.929688 43.847656 23.636719 42.914062 C 23.539062 42.601562 23.445312 42.296875 23.34375 41.976562 C 23.269531 41.734375 23.199219 41.496094 23.121094 41.25 Z M 23.121094 41.25 "/>
<path style=" stroke:none;fill-rule:nonzero;fill:rgb(27.450982%,27.450982%,27.450982%);fill-opacity:1;" d="M 196.148438 5.25 C 198.703125 5.101562 200.824219 5.625 203.265625 6.375 C 201.882812 6.839844 200.9375 6.617188 199.515625 6.375 C 199.394531 6.625 199.269531 6.867188 199.144531 7.125 C 198.898438 7 198.648438 6.878906 198.394531 6.75 C 198.515625 6.5 198.644531 6.257812 198.769531 6 C 197.902344 5.875 197.035156 5.75 196.148438 5.625 C 196.148438 5.5 196.148438 5.378906 196.148438 5.25 Z M 196.148438 5.25 "/>
<path style=" stroke:none;fill-rule:nonzero;fill:rgb(89.803922%,97.254902%,97.254902%);fill-opacity:1;" d="M 57.203125 48 C 57.578125 48.125 57.945312 48.246094 58.328125 48.375 C 58.117188 49.097656 58.117188 49.097656 57.578125 49.875 C 56.242188 50.222656 55.347656 50.402344 54.042969 49.898438 C 53.847656 49.769531 53.65625 49.636719 53.457031 49.503906 C 53.773438 49.386719 53.773438 49.386719 54.089844 49.265625 C 54.359375 49.164062 54.628906 49.0625 54.910156 48.960938 C 55.179688 48.859375 55.449219 48.761719 55.726562 48.660156 C 56.46875 48.382812 56.46875 48.382812 57.203125 48 Z M 57.203125 48 "/>
<path style=" stroke:none;fill-rule:nonzero;fill:rgb(93.725491%,93.725491%,93.725491%);fill-opacity:1;" d="M 196.148438 15.375 C 197.261719 15.375 198.371094 15.375 199.515625 15.375 C 199.394531 15.871094 199.269531 16.367188 199.144531 16.875 C 198.402344 16.875 197.660156 16.875 196.894531 16.875 C 196.648438 16.382812 196.398438 15.886719 196.148438 15.375 Z M 196.148438 15.375 "/>
<path style=" stroke:none;fill-rule:nonzero;fill:rgb(89.803922%,98.039216%,98.823529%);fill-opacity:1;" d="M 55.332031 41.621094 C 57.558594 41.621094 59.78125 41.621094 62.070312 41.621094 C 62.070312 41.75 62.070312 41.871094 62.070312 42 C 60.339844 42.121094 58.613281 42.246094 56.828125 42.371094 C 56.703125 42.746094 56.582031 43.117188 56.457031 43.5 C 56.082031 43.378906 55.714844 43.25 55.332031 43.125 C 55.332031 42.628906 55.332031 42.132812 55.332031 41.621094 Z M 55.332031 41.621094 "/>
<path style=" stroke:none;fill-rule:nonzero;fill:rgb(95.686275%,90.196079%,97.254902%);fill-opacity:1;" d="M 130.984375 28.503906 C 131.601562 28.625 132.21875 28.746094 132.855469 28.875 C 132.105469 29.625 132.105469 29.625 131.355469 30.113281 C 130.464844 30.871094 130.214844 31.527344 129.855469 32.625 C 129.578125 32.039062 129.578125 32.039062 129.484375 31.125 C 129.90625 30.1875 130.429688 29.375 130.984375 28.503906 Z M 130.984375 28.503906 "/>
<path style=" stroke:none;fill-rule:nonzero;fill:rgb(5.882353%,5.882353%,5.882353%);fill-opacity:1;" d="M 173.300781 10.875 C 173.050781 11.613281 172.808594 12.359375 172.550781 13.125 C 172.324219 13.054688 172.089844 12.988281 171.847656 12.917969 C 171.039062 12.660156 171.039062 12.660156 170.304688 13.125 C 170.964844 11.605469 171.539062 10.875 173.300781 10.875 Z M 173.300781 10.875 "/>
<path style=" stroke:none;fill-rule:nonzero;fill:rgb(29.411766%,63.921571%,69.411767%);fill-opacity:1;" d="M 47.464844 43.125 C 47.835938 43.3125 47.835938 43.3125 48.214844 43.5 C 50.050781 44.113281 51.976562 44.117188 53.832031 43.5 C 53.832031 43.746094 53.832031 43.996094 53.832031 44.25 C 52.554688 44.679688 51.554688 44.664062 50.203125 44.648438 C 49.542969 44.644531 49.542969 44.644531 48.867188 44.640625 C 48.53125 44.632812 48.1875 44.628906 47.839844 44.625 C 47.71875 44.128906 47.589844 43.632812 47.464844 43.125 Z M 47.464844 43.125 "/>
<path style=" stroke:none;fill-rule:nonzero;fill:rgb(49.803922%,30.588236%,61.176473%);fill-opacity:1;" d="M 134.355469 24.375 C 136.328125 24.375 138.308594 24.375 140.347656 24.375 C 140.347656 24.5 140.347656 24.625 140.347656 24.75 C 140.046875 24.765625 139.75 24.785156 139.441406 24.808594 C 136.457031 25.011719 136.457031 25.011719 133.605469 25.875 C 133.851562 25.378906 134.101562 24.882812 134.355469 24.375 Z M 134.355469 24.375 "/>
<path style=" stroke:none;fill-rule:nonzero;fill:rgb(89.803922%,99.607843%,99.607843%);fill-opacity:1;" d="M 56.457031 43.5 C 57.933594 44.242188 58.777344 44.863281 59.824219 46.125 C 59.753906 46.992188 59.753906 46.992188 59.449219 47.625 C 58.960938 47.746094 58.464844 47.875 57.953125 48 C 58.199219 47.378906 58.449219 46.761719 58.703125 46.125 C 57.960938 45.257812 57.21875 44.394531 56.457031 43.5 Z M 56.457031 43.5 "/>
<path style=" stroke:none;fill-rule:nonzero;fill:rgb(33.333334%,33.333334%,33.333334%);fill-opacity:1;" d="M 221.242188 21.371094 C 222.398438 22.320312 222.703125 23.332031 223.113281 24.75 C 222.863281 24.996094 222.617188 25.246094 222.363281 25.5 C 221.867188 24.261719 221.375 23.027344 220.863281 21.75 C 220.992188 21.628906 221.113281 21.5 221.242188 21.371094 Z M 221.242188 21.371094 "/>
<path style=" stroke:none;fill-rule:nonzero;fill:rgb(13.725491%,13.725491%,13.725491%);fill-opacity:1;" d="M 174.800781 11.246094 C 174.925781 11.621094 175.046875 11.992188 175.175781 12.375 C 175.425781 12.496094 175.667969 12.621094 175.921875 12.75 C 175.800781 13.121094 175.679688 13.492188 175.550781 13.875 C 174.820312 13.570312 174.820312 13.570312 174.050781 13.125 C 173.929688 12.753906 173.800781 12.378906 173.675781 11.996094 C 173.429688 11.875 173.179688 11.753906 172.929688 11.625 C 174.050781 11.246094 174.050781 11.246094 174.800781 11.246094 Z M 174.800781 11.246094 "/>
<path style=" stroke:none;fill-rule:nonzero;fill:rgb(9.019608%,9.019608%,9.019608%);fill-opacity:1;" d="M 190.902344 15.75 C 191.273438 16.242188 191.644531 16.738281 192.027344 17.25 C 190.25 18.378906 190.25 18.378906 189.40625 18.378906 C 189.808594 17.28125 190.070312 16.582031 190.902344 15.75 Z M 190.902344 15.75 "/>
<path style=" stroke:none;fill-rule:nonzero;fill:rgb(88.627452%,98.039216%,98.823529%);fill-opacity:1;" d="M 60.199219 31.875 C 61.324219 32.246094 61.324219 32.246094 61.957031 33.050781 C 62.550781 34.351562 62.527344 35.332031 62.449219 36.75 C 61.898438 35.671875 61.390625 34.582031 60.902344 33.46875 C 60.769531 33.167969 60.636719 32.871094 60.5 32.558594 C 60.402344 32.335938 60.300781 32.109375 60.199219 31.875 Z M 60.199219 31.875 "/>
<path style=" stroke:none;fill-rule:nonzero;fill:rgb(45.882353%,25.098041%,59.607846%);fill-opacity:1;" d="M 124.613281 27 C 125.164062 28.429688 124.8125 29.363281 124.242188 30.746094 C 123.992188 30.996094 123.746094 31.242188 123.492188 31.496094 C 123.359375 29.671875 123.710938 28.582031 124.613281 27 Z M 124.613281 27 "/>
<path style=" stroke:none;fill-rule:nonzero;fill:rgb(94.117647%,94.117647%,94.117647%);fill-opacity:1;" d="M 202.886719 22.121094 C 203.589844 22.21875 203.589844 22.21875 204.386719 22.5 C 204.855469 23.269531 204.855469 23.269531 205.136719 24 C 204.394531 24 203.652344 24 202.886719 24 C 202.886719 23.382812 202.886719 22.761719 202.886719 22.121094 Z M 202.886719 22.121094 "/>
<path style=" stroke:none;fill-rule:nonzero;fill:rgb(15.294118%,15.294118%,15.294118%);fill-opacity:1;" d="M 183.40625 5.527344 C 184.160156 5.53125 184.910156 5.578125 185.660156 5.625 C 184.539062 6.375 184.539062 6.375 183.414062 6.375 C 183.414062 6.625 183.414062 6.867188 183.414062 7.125 C 182.796875 7.125 182.175781 7.125 181.542969 7.125 C 182.011719 6.179688 182.324219 5.667969 183.40625 5.527344 Z M 183.40625 5.527344 "/>
<path style=" stroke:none;fill-rule:nonzero;fill:rgb(31.37255%,31.37255%,31.37255%);fill-opacity:1;" d="M 176.671875 68.625 C 176.796875 68.875 176.917969 69.121094 177.046875 69.375 C 177.546875 69.507812 178.046875 69.628906 178.542969 69.753906 C 178.917969 69.996094 179.285156 70.246094 179.667969 70.503906 C 179.058594 70.757812 179.058594 70.757812 178.171875 70.875 C 176.953125 70.335938 176.953125 70.335938 175.921875 69.753906 C 176.167969 69.625 176.417969 69.503906 176.671875 69.375 C 176.671875 69.128906 176.671875 68.878906 176.671875 68.625 Z M 176.671875 68.625 "/>
<path style=" stroke:none;fill-rule:nonzero;fill:rgb(23.921569%,77.254903%,73.725492%);fill-opacity:1;" d="M 32.859375 32.625 C 33.230469 32.625 33.601562 32.625 33.984375 32.625 C 33.550781 34.257812 33.203125 35.117188 31.734375 36 C 31.734375 35.503906 31.734375 35.007812 31.734375 34.5 C 31.984375 34.375 32.230469 34.253906 32.484375 34.125 C 32.730469 33.367188 32.730469 33.367188 32.859375 32.625 Z M 32.859375 32.625 "/>
<path style=" stroke:none;fill-rule:nonzero;fill:rgb(51.372552%,63.921571%,76.47059%);fill-opacity:1;" d="M 77.730469 27.699219 C 78.28125 27.710938 78.28125 27.710938 78.839844 27.722656 C 79.113281 27.730469 79.390625 27.742188 79.675781 27.75 C 79.675781 27.875 79.675781 27.996094 79.675781 28.125 C 79.457031 28.144531 79.230469 28.160156 79 28.179688 C 77.355469 28.339844 75.941406 28.515625 74.433594 29.253906 C 74.183594 29.003906 73.9375 28.757812 73.683594 28.503906 C 75.09375 27.84375 76.179688 27.664062 77.730469 27.699219 Z M 77.730469 27.699219 "/>
<path style=" stroke:none;fill-rule:nonzero;fill:rgb(20%,20%,20%);fill-opacity:1;" d="M 223.113281 42 C 222.988281 42.371094 222.863281 42.742188 222.734375 43.125 C 221.996094 43.25 221.257812 43.375 220.492188 43.5 C 220.492188 43.128906 220.492188 42.753906 220.492188 42.371094 C 221.847656 41.578125 221.847656 41.578125 223.113281 42 Z M 223.113281 42 "/>
<path style=" stroke:none;fill-rule:nonzero;fill:rgb(96.470588%,90.980393%,98.431373%);fill-opacity:1;" d="M 150.457031 25.5 C 150.457031 26.625 150.457031 26.625 150.082031 27.75 C 148.746094 28.195312 148.746094 28.195312 147.460938 28.503906 C 147.878906 27.242188 148.113281 27.078125 149.167969 26.367188 C 149.410156 26.207031 149.648438 26.039062 149.894531 25.867188 C 150.082031 25.746094 150.265625 25.625 150.457031 25.5 Z M 150.457031 25.5 "/>
<path style=" stroke:none;fill-rule:nonzero;fill:rgb(81.960785%,81.960785%,81.960785%);fill-opacity:1;" d="M 207.382812 21 C 207.507812 21.371094 207.628906 21.738281 207.757812 22.121094 C 208.007812 22.25 208.25 22.371094 208.507812 22.5 C 207.394531 23.179688 206.296875 23.792969 205.136719 24.375 C 205.875 23.261719 206.621094 22.148438 207.382812 21 Z M 207.382812 21 "/>
<path style=" stroke:none;fill-rule:nonzero;fill:rgb(84.705883%,98.431373%,98.431373%);fill-opacity:1;" d="M 32.859375 34.875 C 32.859375 36 32.859375 36 32.484375 37.125 C 31.746094 37.25 31 37.371094 30.238281 37.5 C 31.113281 36.625 31.984375 35.75 32.859375 34.875 Z M 32.859375 34.875 "/>
<path style=" stroke:none;fill-rule:nonzero;fill:rgb(90.980393%,96.470588%,99.215686%);fill-opacity:1;" d="M 75.183594 34.5 C 75.550781 34.625 75.921875 34.75 76.304688 34.875 C 75.6875 35.617188 75.070312 36.359375 74.433594 37.125 C 74.308594 36.753906 74.183594 36.382812 74.054688 36 C 74.59375 35.175781 74.59375 35.175781 75.183594 34.5 Z M 75.183594 34.5 "/>
<path style=" stroke:none;fill-rule:nonzero;fill:rgb(17.254902%,17.254902%,17.254902%);fill-opacity:1;" d="M 218.992188 18.378906 C 221.078125 20.300781 221.078125 20.300781 221.242188 21.75 C 219.15625 19.820312 219.15625 19.820312 218.992188 18.378906 Z M 218.992188 18.378906 "/>
<path style=" stroke:none;fill-rule:nonzero;fill:rgb(12.941177%,12.941177%,12.941177%);fill-opacity:1;" d="M 162.816406 36 C 163.371094 36.371094 163.371094 36.371094 163.9375 36.75 C 164.011719 37.921875 164.011719 37.921875 163.9375 39 C 163.816406 38.753906 163.695312 38.503906 163.566406 38.25 C 163.316406 38.25 163.070312 38.25 162.816406 38.25 C 162.441406 37.125 162.441406 37.125 162.816406 36 Z M 162.816406 36 "/>
<path style=" stroke:none;fill-rule:nonzero;fill:rgb(85.882354%,95.294118%,97.254902%);fill-opacity:1;" d="M 57.953125 29.625 C 58.449219 29.625 58.945312 29.625 59.449219 29.625 C 60.296875 30.5625 60.296875 30.5625 60.949219 31.496094 C 60.574219 31.625 60.207031 31.746094 59.824219 31.875 C 59.722656 31.636719 59.621094 31.394531 59.519531 31.152344 C 59.117188 30.253906 59.117188 30.253906 57.953125 30.003906 C 57.953125 29.875 57.953125 29.753906 57.953125 29.625 Z M 57.953125 29.625 "/>
<path style=" stroke:none;fill-rule:nonzero;fill:rgb(92.156863%,98.039216%,98.431373%);fill-opacity:1;" d="M 79.300781 27.375 C 80.285156 27.375 81.277344 27.375 82.296875 27.375 C 82.171875 27.871094 82.050781 28.363281 81.921875 28.875 C 81.058594 28.503906 80.191406 28.132812 79.300781 27.75 C 79.300781 27.625 79.300781 27.5 79.300781 27.375 Z M 79.300781 27.375 "/>
<path style=" stroke:none;fill-rule:nonzero;fill:rgb(86.666667%,86.666667%,86.666667%);fill-opacity:1;" d="M 220.113281 55.5 C 220.492188 56.625 220.492188 56.625 220.140625 57.441406 C 219.941406 57.78125 219.941406 57.78125 219.742188 58.125 C 219.496094 58.125 219.246094 58.125 218.992188 58.125 C 218.921875 57.234375 218.921875 57.234375 218.992188 56.25 C 219.363281 56.003906 219.734375 55.753906 220.113281 55.5 Z M 220.113281 55.5 "/>
<path style=" stroke:none;fill-rule:nonzero;fill:rgb(49.411765%,25.882354%,65.098041%);fill-opacity:1;" d="M 145.960938 40.5 C 146.085938 40.996094 146.210938 41.488281 146.339844 42 C 145.71875 42.496094 145.101562 42.992188 144.460938 43.5 C 145.121094 41.34375 145.121094 41.34375 145.960938 40.5 Z M 145.960938 40.5 "/>
</g>
</svg>
