<svg version="1.1" xmlns="http://www.w3.org/2000/svg" width="30" height="30" viewBox="0 0 512 512"><path d="M0 0 C2.76541037 2.0403616 5.05890235 4.13706992 7.32421875 6.71484375 C10.72144973 5.174239 13.48790683 3.16002033 16.44921875 0.90234375 C30.7496122 -9.60367864 45.08315586 -12.26047822 62.55078125 -9.99658203 C76.7030772 -7.45231068 88.32949541 -0.38309533 98.32421875 9.71484375 C99.37029297 10.71064453 99.37029297 10.71064453 100.4375 11.7265625 C113.64378404 25.18927924 117.54030428 42.49477643 117.65429688 60.71142578 C117.59077771 66.6388222 116.70170413 71.96036274 115.32421875 77.71484375 C117.10252075 77.69127808 117.10252075 77.69127808 118.91674805 77.66723633 C123.32423075 77.6128481 127.7316839 77.57846129 132.1394043 77.55004883 C134.04537956 77.53498247 135.95132027 77.51452551 137.85717773 77.48852539 C140.60018451 77.45204733 143.34273203 77.43509583 146.0859375 77.421875 C147.35965462 77.39864922 147.35965462 77.39864922 148.65910339 77.37495422 C153.39875386 77.37361252 156.46406871 77.65921579 160.32421875 80.71484375 C164.81787871 85.59367456 166.6115056 89.62549505 166.53386497 96.29086113 C166.10632379 101.23420036 164.64259029 105.95354853 163.31762695 110.71899414 C162.99713379 111.9028772 162.67664063 113.08676025 162.34643555 114.30651855 C161.46654352 117.54879473 160.5777273 120.78836816 159.68481088 124.02706456 C158.73740863 127.47175665 157.80154229 130.91958181 156.86430359 134.36705017 C155.07468278 140.94291725 153.27461602 147.51587805 151.4708721 154.08788341 C149.47025444 161.37929434 147.48172737 168.67398239 145.49410272 175.96894383 C142.04495561 188.62699164 138.58034535 201.28071341 135.10292459 213.93102193 C132.83518686 222.18193541 130.58355758 230.43696211 128.35630131 238.69891834 C127.16316904 243.12122259 125.96204167 247.5413313 124.75951195 251.96108818 C124.21344033 253.97628795 123.67116088 255.99251978 123.13298988 258.00984383 C122.40349385 260.74300161 121.66076497 263.47222833 120.91479492 266.20092773 C120.60652928 267.37743928 120.60652928 267.37743928 120.29203606 268.57771873 C118.3607612 275.54391377 115.31081359 280.46121057 109.32421875 284.71484375 C106.95239642 285.90075492 105.5218471 285.84282241 102.87539959 285.84792233 C101.93398418 285.85216337 100.99256877 285.85640442 100.02262563 285.86077398 C98.98130587 285.86038785 97.93998611 285.86000172 96.86711121 285.85960388 C95.21600097 285.86489415 95.21600097 285.86489415 93.53153497 285.87029129 C89.8181383 285.88102353 86.10476723 285.8846671 82.39135742 285.88842773 C79.73910802 285.89472951 77.08686273 285.90143577 74.43461609 285.90869141 C68.71064274 285.92364384 62.98667071 285.93518224 57.26268578 285.94463921 C48.98124826 285.95849984 40.69984137 285.97968594 32.41842584 286.00306774 C18.97614203 286.04100548 5.53385268 286.07596558 -7.90844727 286.10766602 C-9.11598242 286.11051675 -9.11598242 286.11051675 -10.34791221 286.11342508 C-21.77036818 286.14025247 -33.19282843 286.16412667 -44.61529329 286.18681008 C-45.41940715 286.18840738 -46.22352101 286.19000469 -47.05200195 286.19165039 C-48.25670647 286.19404059 -48.25670647 286.19404059 -49.48574845 286.19647907 C-62.87311537 286.22323884 -76.26044971 286.25763548 -89.64778155 286.29830414 C-97.90874727 286.32309182 -106.1696779 286.34141143 -114.43067493 286.35145975 C-120.09152416 286.35884651 -125.75232633 286.37336635 -131.41314439 286.39352398 C-134.68055551 286.40492376 -137.94787569 286.41196516 -141.21530914 286.41251564 C-144.75621034 286.41359412 -148.29686376 286.42680593 -151.83772278 286.44309998 C-152.87235037 286.44048312 -153.90697796 286.43786627 -154.97295791 286.43517011 C-155.92219656 286.44201891 -156.87143521 286.4488677 -157.84943867 286.45592403 C-158.66665183 286.45766028 -159.483865 286.45939653 -160.3258422 286.4611854 C-163.34605661 286.78719496 -166.46864387 287.50770637 -168.67578125 289.71484375 C-168.90496367 293.73141518 -168.90496367 293.73141518 -168.67578125 297.71484375 C-165.46270489 300.92792011 -162.22018121 300.83981977 -157.82469273 300.8434782 C-156.84446127 300.84670265 -155.8642298 300.8499271 -154.85429436 300.85324925 C-153.7798908 300.85170065 -152.70548724 300.85015205 -151.598526 300.84855652 C-150.45524147 300.85082208 -149.31195694 300.85308763 -148.13402742 300.85542184 C-144.96026637 300.86066211 -141.78654089 300.86140586 -138.61277688 300.86022747 C-135.19008421 300.86002355 -131.76740003 300.86554135 -128.3447113 300.87028503 C-121.63923082 300.8785937 -114.93375913 300.88133996 -108.22827394 300.88189741 C-102.77884901 300.88237242 -97.32942698 300.8844264 -91.88000298 300.88759804 C-76.43445446 300.89640479 -60.98891289 300.90101732 -45.54336185 300.90026756 C-44.29418655 300.90020763 -44.29418655 300.90020763 -43.01977539 300.90014648 C-42.18597681 300.9001056 -41.35217823 300.90006472 -40.49311303 300.9000226 C-26.97522638 300.89961601 -13.45736756 300.90918886 0.06051105 300.92328485 C13.93608608 300.93763985 27.81164752 300.94455554 41.68723017 300.94369107 C49.47915578 300.94335883 57.27105219 300.94611812 65.06297112 300.95686913 C71.69609578 300.96596255 78.32917801 300.96815889 84.96230619 300.9613597 C88.34722209 300.95808875 91.7319899 300.95913974 95.11690903 300.96671295 C98.78467286 300.97438915 102.45222093 300.96981702 106.11997986 300.96208191 C107.72823911 300.96979725 107.72823911 300.96979725 109.36898845 300.97766846 C110.84324727 300.97077027 110.84324727 300.97077027 112.34728909 300.96373272 C113.19379573 300.96395009 114.04030238 300.96416746 114.91246074 300.96439141 C117.70139399 300.67581695 119.81245958 299.95049126 122.32421875 298.71484375 C123.67099954 296.37569816 124.23626124 294.20938036 124.70703125 291.5625 C125.70057258 286.13415144 126.79980567 283.26973974 131.32421875 279.71484375 C136.2779616 276.67382591 141.70509924 277.12645427 147.32421875 277.71484375 C151.33707948 278.94957013 153.75054812 280.77992298 155.98046875 284.4140625 C159.04689501 291.9464177 158.24317248 301.0311267 155.69921875 308.65234375 C151.15281053 319.382503 143.17362497 327.53253542 132.40234375 331.98828125 C128.16160901 333.47094415 124.54219841 333.83379648 120.02734375 333.8125 C118.82207031 333.80927734 117.61679687 333.80605469 116.375 333.80273438 C115.12074219 333.79435547 113.86648438 333.78597656 112.57421875 333.77734375 C111.30449219 333.77283203 110.03476562 333.76832031 108.7265625 333.76367188 C105.59240039 333.75188931 102.45833334 333.73543791 99.32421875 333.71484375 C99.64648438 334.68035156 99.96875 335.64585937 100.30078125 336.640625 C104.17834551 350.30131819 101.27691625 364.68128078 94.69921875 376.90234375 C87.97700125 387.34608815 77.95722575 394.03535545 66.03515625 397.3515625 C50.25276255 399.46649422 36.20785805 397.76433855 22.859375 388.6796875 C13.7937423 381.65347294 6.83400475 371.28986977 5.32421875 359.71484375 C5.16500571 356.58847852 5.13914135 353.46983979 5.13671875 350.33984375 C5.12447266 349.51484375 5.11222656 348.68984375 5.09960938 347.83984375 C5.09767578 347.02773438 5.09574219 346.215625 5.09375 345.37890625 C5.08964111 344.6513916 5.08553223 343.92387695 5.08129883 343.17431641 C5.32421875 340.71484375 5.32421875 340.71484375 7.32421875 333.71484375 C-9.83578125 333.71484375 -26.99578125 333.71484375 -44.67578125 333.71484375 C-43.68578125 337.17984375 -43.68578125 337.17984375 -42.67578125 340.71484375 C-40.84119201 355.54418319 -43.52244867 369.67514712 -52.67578125 381.71484375 C-60.37434382 390.33555719 -70.97522049 397.07187699 -82.74584961 397.85205078 C-99.52795332 398.56735923 -112.93069972 396.23085183 -125.9296875 384.71875 C-135.35248963 374.97410643 -138.85307528 363.52596153 -138.86328125 350.33984375 C-138.87552734 349.51484375 -138.88777344 348.68984375 -138.90039062 347.83984375 C-138.90232422 347.02773438 -138.90425781 346.215625 -138.90625 345.37890625 C-138.91035889 344.6513916 -138.91446777 343.92387695 -138.91870117 343.17431641 C-138.59356526 339.8824378 -137.64483426 336.86948695 -136.67578125 333.71484375 C-137.67843018 333.73579102 -138.6810791 333.75673828 -139.71411133 333.77832031 C-143.48430731 333.85149309 -147.25444248 333.89691975 -151.02514648 333.93457031 C-152.64765018 333.95451188 -154.27008367 333.98167549 -155.89233398 334.01660156 C-169.2777798 334.29727079 -180.36447347 333.17415788 -190.67578125 323.71484375 C-198.57976401 316.05381128 -202.70276743 307.5545559 -202.96826172 296.52099609 C-203.0812617 283.15116859 -200.2930908 273.57371703 -190.828125 263.80859375 C-184.19561917 257.5848507 -176.29419894 253.57546617 -167.09082031 253.60131836 C-165.73987274 253.60143166 -165.73987274 253.60143166 -164.3616333 253.60154724 C-163.39795837 253.60670853 -162.43428345 253.61186981 -161.44140625 253.6171875 C-160.44824402 253.61860245 -159.45508179 253.6200174 -158.43182373 253.62147522 C-155.26311213 253.62706787 -152.09447146 253.63961905 -148.92578125 253.65234375 C-146.77604269 253.6573597 -144.62630302 253.66192244 -142.4765625 253.66601562 C-137.20960976 253.67618349 -131.94270446 253.69494354 -126.67578125 253.71484375 C-126.86821159 252.85692608 -127.06064194 251.99900841 -127.2589035 251.11509323 C-132.83774963 226.20836605 -138.23566591 201.26530308 -143.56409645 176.3039217 C-144.66272111 171.15890985 -145.76304235 166.01426082 -146.86315918 160.86956787 C-148.93234432 151.19183037 -151.00007378 141.51378249 -153.06723738 131.83561301 C-155.42655138 120.78999914 -157.78755353 109.74474631 -160.14867496 98.69951868 C-164.99287951 76.0383525 -169.83503729 53.37674939 -174.67578125 30.71484375 C-175.48709 30.71119812 -176.29839874 30.70755249 -177.1342926 30.70379639 C-184.79948965 30.66584837 -192.46420432 30.60891916 -200.12909031 30.53094101 C-204.06923085 30.49151845 -208.00914967 30.45930468 -211.94946289 30.44384766 C-215.75581196 30.42864619 -219.56155125 30.39414013 -223.3676281 30.34653473 C-224.81594464 30.33175662 -226.26434826 30.32380479 -227.71273994 30.3229599 C-241.86421516 30.30641043 -241.86421516 30.30641043 -247.67578125 25.71484375 C-251.9510302 20.33630475 -251.4161393 13.25328678 -250.67578125 6.71484375 C-248.36983453 1.57080877 -245.81119706 -0.19427065 -240.67578125 -2.28515625 C-237.77478134 -2.57016563 -235.0920474 -2.70607482 -232.1953125 -2.68920898 C-230.95024429 -2.69950386 -230.95024429 -2.69950386 -229.68002319 -2.71000671 C-226.94926622 -2.7282372 -224.21908574 -2.72444307 -221.48828125 -2.71875 C-219.5830873 -2.72331318 -217.677895 -2.72861917 -215.77270508 -2.7346344 C-211.78492534 -2.74355781 -207.79734597 -2.74115063 -203.80957031 -2.73120117 C-198.70502604 -2.71970491 -193.60117286 -2.73993699 -188.49671936 -2.76911831 C-184.56412379 -2.78748213 -180.63169385 -2.78718761 -176.69906616 -2.78148079 C-174.8172407 -2.78132764 -172.93540396 -2.78736689 -171.05361938 -2.79977226 C-168.42072409 -2.81468624 -165.78910592 -2.80400319 -163.15625 -2.78686523 C-162.38308441 -2.7965332 -161.60991882 -2.80620117 -160.81332397 -2.81616211 C-155.59481892 -2.74519986 -152.6236501 -1.68680905 -148.67578125 1.71484375 C-145.41938339 5.79613902 -143.94424277 9.44602498 -142.75292969 14.4987793 C-142.59628845 15.14832581 -142.43964722 15.79787231 -142.27825928 16.46710205 C-141.76881524 18.59265871 -141.27676267 20.72181622 -140.78515625 22.8515625 C-140.43311539 24.33818586 -140.08009276 25.82457705 -139.72613525 27.31074524 C-138.98940322 30.41487092 -138.2605648 33.5207003 -137.53808594 36.62817383 C-136.61176506 40.61208844 -135.67191598 44.59264677 -134.72695541 48.57217693 C-133.82510361 52.37256048 -132.92982945 56.17448376 -132.03515625 59.9765625 C-131.86405083 60.70135992 -131.6929454 61.42615734 -131.51665497 62.17291832 C-131.03449034 64.22081522 -130.55700245 66.26974234 -130.08105469 68.3190918 C-129.80888123 69.48458054 -129.53670776 70.65006927 -129.25628662 71.85087585 C-128.67578125 74.71484375 -128.67578125 74.71484375 -128.67578125 77.71484375 C-118.44578125 77.71484375 -108.21578125 77.71484375 -97.67578125 77.71484375 C-98.66578125 73.75484375 -99.65578125 69.79484375 -100.67578125 65.71484375 C-102.53670356 47.13915081 -97.79558684 29.14935274 -86.16796875 14.42578125 C-64.36687977 -11.46049144 -28.48119256 -19.00132117 0 0 Z M-61.68359375 36.00390625 C-67.37266467 43.50205412 -70.69498188 52.20230456 -69.67578125 61.71484375 C-63.19940688 95.55389983 -30.13804861 119.8087261 -3.98828125 138.83984375 C-3.20960693 139.40872314 -2.43093262 139.97760254 -1.62866211 140.5637207 C-0.89784424 141.09054443 -0.16702637 141.61736816 0.5859375 142.16015625 C1.23522217 142.62953613 1.88450684 143.09891602 2.5534668 143.58251953 C4.435914 144.88800317 4.435914 144.88800317 7.32421875 145.71484375 C9.05780971 144.95156207 9.05780971 144.95156207 10.7734375 143.64453125 C11.44866455 143.16685303 12.1238916 142.6891748 12.81958008 142.19702148 C13.54298584 141.66665283 14.2663916 141.13628418 15.01171875 140.58984375 C16.14033325 139.77592163 16.14033325 139.77592163 17.29174805 138.94555664 C29.61701854 129.9626451 41.29531218 120.24555421 52.32421875 109.71484375 C52.85644043 109.2151709 53.38866211 108.71549805 53.93701172 108.20068359 C67.76935779 95.1717416 82.54685865 78.40555552 83.69921875 58.52734375 C83.3999349 48.33408775 79.62850179 38.83220617 72.32421875 31.71484375 C64.51698409 25.32582978 56.57206581 21.85951875 46.3984375 22.19140625 C35.79294862 23.99716929 27.13263646 33.88456928 20.32421875 41.71484375 C20.32421875 42.37484375 20.32421875 43.03484375 20.32421875 43.71484375 C13.82730899 46.34872609 8.16374053 48.11411616 1.203125 46.1015625 C-4.5014758 43.57730445 -7.79320676 39.44839348 -11.67578125 34.71484375 C-16.74035092 29.09525275 -21.91782018 23.4183555 -29.6875 22.26953125 C-42.61447221 21.81058549 -53.15161986 26.27679205 -61.68359375 36.00390625 Z M-94.28125 108.93359375 C-95.12045486 108.95578979 -95.95965973 108.97798584 -96.82429504 109.00085449 C-99.50396708 109.07181399 -102.18362416 109.14332223 -104.86328125 109.21484375 C-106.68033758 109.26305698 -108.49739486 109.3112345 -110.31445312 109.359375 C-114.76824204 109.47738311 -119.22201231 109.59608425 -123.67578125 109.71484375 C-120.21618726 127.42863114 -116.45905267 145.06344399 -112.53515625 162.6796875 C-111.96161773 165.26230016 -111.38823568 167.84494717 -110.81500244 170.42762756 C-109.62693357 175.77842719 -108.43668779 181.12873893 -107.24511719 186.47875977 C-105.86885117 192.65820293 -104.49649189 198.83850465 -103.12602592 205.01923651 C-101.79731699 211.01111156 -100.46564714 217.00232436 -99.13269806 222.99325752 C-98.56893416 225.52852668 -98.00595753 228.06397104 -97.44377899 230.59959221 C-96.66396559 234.11506465 -95.88078998 237.62977095 -95.09667969 241.14428711 C-94.86501099 242.19185684 -94.63334229 243.23942657 -94.39465332 244.31874084 C-94.07527802 245.74535538 -94.07527802 245.74535538 -93.74945068 247.20079041 C-93.56513363 248.02927459 -93.38081657 248.85775877 -93.19091415 249.71134853 C-92.73716668 251.76740434 -92.73716668 251.76740434 -91.67578125 253.71484375 C-31.94578125 253.71484375 27.78421875 253.71484375 89.32421875 253.71484375 C91.66180951 247.60989614 91.66180951 247.60989614 93.59802246 241.44664001 C93.8050177 240.70107346 94.01201294 239.9555069 94.22528076 239.18734741 C94.44033264 238.39841095 94.65538452 237.60947449 94.87695312 236.79663086 C95.11331482 235.94127243 95.34967651 235.085914 95.59320068 234.20463562 C96.37154205 231.38474934 97.14472097 228.56347433 97.91796875 225.7421875 C98.46990145 223.73945011 99.02219554 221.73681229 99.5748291 219.73426819 C101.03360224 214.44503081 102.48817682 209.15464845 103.94165039 203.86395264 C106.23038033 195.53541317 108.52520204 187.20854962 110.82019043 178.88173294 C111.38474181 176.83267106 111.94895158 174.78351502 112.51281738 172.73426437 C115.51229751 161.83332108 118.53167267 150.93882428 121.62109375 140.06298828 C121.88135597 139.14586972 122.14161819 138.22875116 122.40976715 137.28384113 C123.63404086 132.97261301 124.86309802 128.66283828 126.09997559 124.35520935 C126.53094631 122.84303682 126.96181985 121.33083658 127.39257812 119.81860352 C127.59028809 119.13653147 127.78799805 118.45445942 127.99169922 117.75171852 C128.78350503 114.96069698 129.32421875 112.63448471 129.32421875 109.71484375 C125.3601776 109.44017669 121.39989672 109.24216337 117.4284668 109.1105957 C115.42494038 109.02890223 113.42405779 108.8890192 111.42382812 108.74804688 C103.92708856 108.48403989 103.92708856 108.48403989 97.57006836 111.99487305 C95.2855682 114.80335644 93.29146584 117.67819429 91.32421875 120.71484375 C90.35249995 121.87950041 89.35602978 123.02468241 88.3203125 124.1328125 C87.05380859 125.50373047 87.05380859 125.50373047 85.76171875 126.90234375 C83.95779517 128.84833572 82.14417482 130.78368321 80.32421875 132.71484375 C79.63457031 133.44703125 78.94492187 134.17921875 78.234375 134.93359375 C72.98580105 140.3431669 67.23982623 145.05820777 61.32421875 149.71484375 C60.71964844 150.1958252 60.11507812 150.67680664 59.4921875 151.17236328 C48.96213988 159.52623623 38.07353076 167.2579641 26.61328125 174.29296875 C25.1223791 175.21905814 23.65623384 176.18665465 22.22265625 177.19921875 C15.62743454 181.53113559 9.03822395 182.07176002 1.32421875 180.71484375 C-3.07359269 178.84090966 -6.72333985 176.30688925 -10.55078125 173.46484375 C-11.58162842 172.73773193 -12.61247559 172.01062012 -13.67456055 171.26147461 C-16.70097579 169.11269854 -19.691254 166.92128961 -22.67578125 164.71484375 C-24.24703548 163.57502392 -25.8186145 162.43565157 -27.390625 161.296875 C-31.20637636 158.50381575 -34.95757565 155.6362125 -38.67578125 152.71484375 C-39.66449219 151.93882812 -40.65320313 151.1628125 -41.671875 150.36328125 C-48.62105866 144.78422032 -55.19764032 138.82728317 -61.67578125 132.71484375 C-62.53171875 131.91304687 -63.38765625 131.11125 -64.26953125 130.28515625 C-69.76683439 124.97921493 -74.50087653 119.3360103 -79.01000977 113.18432617 C-80.16566403 111.64252626 -81.41439918 110.17141473 -82.67578125 108.71484375 C-86.54633672 108.71484375 -90.41240107 108.82984936 -94.28125 108.93359375 Z M-102.67578125 338.71484375 C-106.56516022 344.15623451 -106.46620734 349.23334984 -105.67578125 355.71484375 C-103.48934426 360.33065517 -101.17978321 362.4434846 -96.67578125 364.71484375 C-91.12769521 365.54369644 -86.20437242 365.43891325 -81.11328125 363.02734375 C-77.84376135 359.92549154 -75.91727602 357.33133577 -75.2421875 352.8125 C-75.23427453 346.66412574 -75.22927585 342.40170079 -79.67578125 337.71484375 C-86.65563987 332.72580391 -96.3126311 332.67800899 -102.67578125 338.71484375 Z M41.32421875 338.71484375 C37.43483978 344.15623451 37.53379266 349.23334984 38.32421875 355.71484375 C40.51065574 360.33065517 42.82021679 362.4434846 47.32421875 364.71484375 C52.87230479 365.54369644 57.79562758 365.43891325 62.88671875 363.02734375 C66.15623865 359.92549154 68.08272398 357.33133577 68.7578125 352.8125 C68.76572547 346.66412574 68.77072415 342.40170079 64.32421875 337.71484375 C57.34436013 332.72580391 47.6873689 332.67800899 41.32421875 338.71484375 Z " fill="#000000" transform="translate(298.67578125,66.28515625)" /></svg>